<?xml version="1.0" encoding="utf-8"?>
<!-- Generator: Adobe Illustrator 27.5.0, SVG Export Plug-In . SVG Version: 6.00 Build 0)  -->
<svg version="1.1" id="Layer_1" xmlns:xodm="http://www.corel.com/coreldraw/odm/2003"
	 xmlns="http://www.w3.org/2000/svg" xmlns:xlink="http://www.w3.org/1999/xlink" x="0px" y="0px" viewBox="0 0 4000 4000"
	 style="enable-background:new 0 0 4000 4000;" xml:space="preserve">
<g id="Layer_x5F_1">
	<g id="_1767774065552">
		<rect style="fill-rule:evenodd;clip-rule:evenodd;fill:#FFFFFF;" width="4000" height="4000"/>
		<g>
			
				<linearGradient id="SVGID_1_" gradientUnits="userSpaceOnUse" x1="1406.7899" y1="1389.1802" x2="1406.7899" y2="2535.2603" gradientTransform="matrix(1 0 0 -1 0 4002)">
				<stop  offset="0" style="stop-color:#0463EF"/>
				<stop  offset="1" style="stop-color:#4EEC91"/>
			</linearGradient>
			<path style="fill-rule:evenodd;clip-rule:evenodd;fill:url(#SVGID_1_);" d="M1163.45,1609.02l486.68-213.64v1110.25
				c0,131.99-238.48,131.99-238.48,0v-896.61L1163.45,1609.02L1163.45,1609.02z"/>
			<defs>
				<filter id="Adobe_OpacityMaskFilter" filterUnits="userSpaceOnUse" x="1163.45" y="1395.38" width="486.68" height="695.14">
					<feColorMatrix  type="matrix" values="1 0 0 0 0  0 1 0 0 0  0 0 1 0 0  0 0 0 1 0"/>
				</filter>
			</defs>
			<mask maskUnits="userSpaceOnUse" x="1163.45" y="1395.38" width="486.68" height="695.14" id="id0_1_">
				<defs>
					
						<filter id="Adobe_OpacityMaskFilter_00000061465012371300719530000000539930525594439848_" filterUnits="userSpaceOnUse" x="1162.41" y="1394.34" width="488.76" height="697.22">
						<feFlood  style="flood-color:white;flood-opacity:1" result="back"/>
						<feBlend  in="SourceGraphic" in2="back" mode="normal"/>
					</filter>
				</defs>
				
					<mask maskUnits="userSpaceOnUse" x="1162.41" y="1394.34" width="488.76" height="697.22" id="id0_1_" style="filter:url(#Adobe_OpacityMaskFilter);">
					<g style="filter:url(#Adobe_OpacityMaskFilter_00000061465012371300719530000000539930525594439848_);">
						<defs>
							
								<filter id="Adobe_OpacityMaskFilter_00000063594265321123791590000009675758002900662693_" filterUnits="userSpaceOnUse" x="1162.41" y="1394.34" width="488.76" height="697.22">
								<feFlood  style="flood-color:white;flood-opacity:1" result="back"/>
								<feBlend  in="SourceGraphic" in2="back" mode="normal"/>
							</filter>
						</defs>
						<mask maskUnits="userSpaceOnUse" x="1162.41" y="1394.34" width="488.76" height="697.22" id="id0_1_">
							<g style="filter:url(#Adobe_OpacityMaskFilter_00000063594265321123791590000009675758002900662693_);">
							</g>
						</mask>
						
							<linearGradient id="SVGID_00000090271072693076217680000004454845199067119505_" gradientUnits="userSpaceOnUse" x1="1406.79" y1="3158.77" x2="1406.79" y2="1398.0104" gradientTransform="matrix(1 0 0 -1 0 4002)">
							<stop  offset="0" style="stop-color:#FFFFFF"/>
							<stop  offset="1" style="stop-color:#000000"/>
						</linearGradient>
						
							<rect x="1162.41" y="1394.34" style="mask:url(#id0_1_);fill-rule:evenodd;clip-rule:evenodd;fill:url(#SVGID_00000090271072693076217680000004454845199067119505_);" width="488.76" height="697.22"/>
					</g>
				</mask>
				
					<linearGradient id="SVGID_00000097476234941951620650000003484872249265030536_" gradientUnits="userSpaceOnUse" x1="1406.79" y1="3158.77" x2="1406.79" y2="1398.0104" gradientTransform="matrix(1 0 0 -1 0 4002)">
					<stop  offset="0" style="stop-color:#FFFFFF"/>
					<stop  offset="1" style="stop-color:#FFFFFF"/>
				</linearGradient>
				
					<rect x="1162.41" y="1394.34" style="fill-rule:evenodd;clip-rule:evenodd;fill:url(#SVGID_00000097476234941951620650000003484872249265030536_);" width="488.76" height="697.22"/>
			</mask>
			<path style="fill-rule:evenodd;clip-rule:evenodd;fill:#66FFCC;" d="M1163.45,1609.02l486.68-213.64v676.38
				c-37.78,12.18-77.8,18.76-119.24,18.76s-81.45-6.58-119.24-18.76v-462.74H1163.45z"/>
		</g>
		<g>
			
				<linearGradient id="SVGID_00000093896034699512824710000010506280224761235638_" gradientUnits="userSpaceOnUse" x1="2693.6506" y1="1579.0327" x2="2046.3218" y2="2509.4221" gradientTransform="matrix(1 0 0 -1 0 4002)">
				<stop  offset="0" style="stop-color:#0463EF"/>
				<stop  offset="1" style="stop-color:#4EEC91"/>
			</linearGradient>
			<path style="fill-rule:evenodd;clip-rule:evenodd;fill:url(#SVGID_00000093896034699512824710000010506280224761235638_);" d="
				M2334.28,1673.38c146.83,0,265.85,146.23,265.85,326.62s-119.02,326.63-265.85,326.63c0,0,412.67,58.38,497.5-400.05
				c0.27-1.47,0.54-2.93,0.82-4.39c-31.15-304.07-242.38-539.27-498.32-539.27c-101.37,0-195.73,36.89-274.64,100.39
				c-137.06,110.19-227.63,300.43-227.63,516.69c0,14.12,0.42,28.13,1.18,42.01c0.01,0.13,0.01,0.26-0.01,0.39
				C1946.3,1590.12,2334.28,1673.38,2334.28,1673.38L2334.28,1673.38z"/>
			
				<linearGradient id="SVGID_00000033346675150615749750000015778610258362771644_" gradientUnits="userSpaceOnUse" x1="1851.6072" y1="1806.3745" x2="2851.0171" y2="1926.1946" gradientTransform="matrix(1 0 0 -1 0 4002)">
				<stop  offset="0" style="stop-color:#0049E7"/>
				<stop  offset="1" style="stop-color:#C835F8"/>
			</linearGradient>
			<path style="fill-rule:evenodd;clip-rule:evenodd;fill:url(#SVGID_00000033346675150615749750000015778610258362771644_);" d="
				M2334.28,2326.63c-146.83,0-265.85-146.24-265.85-326.63s119.02-326.62,265.85-326.62c0,0-387.98-83.26-501.1,369.02
				c17.73,321.03,235.3,574.69,501.1,574.69c277.39,0,502.27-276.28,502.27-617.09c0-26.35-1.34-52.32-3.95-77.81
				c-0.28,1.46-0.55,2.92-0.82,4.39C2746.95,2385.01,2334.28,2326.63,2334.28,2326.63L2334.28,2326.63z"/>
			<defs>
				
					<filter id="Adobe_OpacityMaskFilter_00000022519910101066915340000013358137961399795386_" filterUnits="userSpaceOnUse" x="1833.18" y="1667.351" width="501.1" height="461.399">
					<feColorMatrix  type="matrix" values="1 0 0 0 0  0 1 0 0 0  0 0 1 0 0  0 0 0 1 0"/>
				</filter>
			</defs>
			<mask maskUnits="userSpaceOnUse" x="1833.18" y="1667.351" width="501.1" height="461.399" id="id2_1_">
				<defs>
					
						<filter id="Adobe_OpacityMaskFilter_00000062161583964394151440000013728173950779862948_" filterUnits="userSpaceOnUse" x="1832.14" y="1666.31" width="503.18" height="463.48">
						<feFlood  style="flood-color:white;flood-opacity:1" result="back"/>
						<feBlend  in="SourceGraphic" in2="back" mode="normal"/>
					</filter>
				</defs>
				
					<mask maskUnits="userSpaceOnUse" x="1832.14" y="1666.31" width="503.18" height="463.48" id="id2_1_" style="filter:url(#Adobe_OpacityMaskFilter_00000022519910101066915340000013358137961399795386_);">
					<g style="filter:url(#Adobe_OpacityMaskFilter_00000062161583964394151440000013728173950779862948_);">
						<defs>
							
								<filter id="Adobe_OpacityMaskFilter_00000093898733647681396890000014413542940151946637_" filterUnits="userSpaceOnUse" x="1832.14" y="1666.31" width="503.18" height="463.48">
								<feFlood  style="flood-color:white;flood-opacity:1" result="back"/>
								<feBlend  in="SourceGraphic" in2="back" mode="normal"/>
							</filter>
						</defs>
						<mask maskUnits="userSpaceOnUse" x="1832.14" y="1666.31" width="503.18" height="463.48" id="id2_1_">
							<g style="filter:url(#Adobe_OpacityMaskFilter_00000093898733647681396890000014413542940151946637_);">
							</g>
						</mask>
						
							<linearGradient id="SVGID_00000116943220551146008610000003098443152401994668_" gradientUnits="userSpaceOnUse" x1="2666.1326" y1="2722.9734" x2="1851.7219" y2="1857.3533" gradientTransform="matrix(1 0 0 -1 0 4002)">
							<stop  offset="0" style="stop-color:#FFFFFF"/>
							<stop  offset="1" style="stop-color:#000000"/>
						</linearGradient>
						
							<rect x="1832.14" y="1666.31" style="mask:url(#id2_1_);fill-rule:evenodd;clip-rule:evenodd;fill:url(#SVGID_00000116943220551146008610000003098443152401994668_);" width="503.18" height="463.48"/>
					</g>
				</mask>
				
					<linearGradient id="SVGID_00000088828262515366481090000000534864206105420420_" gradientUnits="userSpaceOnUse" x1="2666.1326" y1="2722.9734" x2="1851.7219" y2="1857.3533" gradientTransform="matrix(1 0 0 -1 0 4002)">
					<stop  offset="0" style="stop-color:#FFFFFF"/>
					<stop  offset="1" style="stop-color:#FFFFFF"/>
				</linearGradient>
				
					<rect x="1832.14" y="1666.31" style="fill-rule:evenodd;clip-rule:evenodd;fill:url(#SVGID_00000088828262515366481090000000534864206105420420_);" width="503.18" height="463.48"/>
			</mask>
			<path style="fill-rule:evenodd;clip-rule:evenodd;fill:#000066;" d="M1842.96,2128.75c58.36-193.92,170.52-279.18,272.96-315.11
				c48.02-84.78,127.92-140.26,218.36-140.26c0,0-387.98-83.26-501.1,369.02C1834.8,2071.8,1838.1,2100.62,1842.96,2128.75
				L1842.96,2128.75z"/>
			<defs>
				
					<filter id="Adobe_OpacityMaskFilter_00000028288746945861469690000015113049622844549038_" filterUnits="userSpaceOnUse" x="2334.28" y="1851.46" width="498.32" height="477.576">
					<feColorMatrix  type="matrix" values="1 0 0 0 0  0 1 0 0 0  0 0 1 0 0  0 0 0 1 0"/>
				</filter>
			</defs>
			<mask maskUnits="userSpaceOnUse" x="2334.28" y="1851.46" width="498.32" height="477.576" id="id4_1_">
				<defs>
					
						<filter id="Adobe_OpacityMaskFilter_00000139991031725079760350000017249988326404753031_" filterUnits="userSpaceOnUse" x="2333.24" y="1850.42" width="500.4" height="479.65">
						<feFlood  style="flood-color:white;flood-opacity:1" result="back"/>
						<feBlend  in="SourceGraphic" in2="back" mode="normal"/>
					</filter>
				</defs>
				
					<mask maskUnits="userSpaceOnUse" x="2333.24" y="1850.42" width="500.4" height="479.65" id="id4_1_" style="filter:url(#Adobe_OpacityMaskFilter_00000028288746945861469690000015113049622844549038_);">
					<g style="filter:url(#Adobe_OpacityMaskFilter_00000139991031725079760350000017249988326404753031_);">
						<defs>
							
								<filter id="Adobe_OpacityMaskFilter_00000037689046077154928250000014795016872622679713_" filterUnits="userSpaceOnUse" x="2333.24" y="1850.42" width="500.4" height="479.65">
								<feFlood  style="flood-color:white;flood-opacity:1" result="back"/>
								<feBlend  in="SourceGraphic" in2="back" mode="normal"/>
							</filter>
						</defs>
						<mask maskUnits="userSpaceOnUse" x="2333.24" y="1850.42" width="500.4" height="479.65" id="id4_1_">
							<g style="filter:url(#Adobe_OpacityMaskFilter_00000037689046077154928250000014795016872622679713_);">
							</g>
						</mask>
						
							<linearGradient id="SVGID_00000163056594384056969320000005745465450181632407_" gradientUnits="userSpaceOnUse" x1="1720.0886" y1="495.7807" x2="2818.45" y2="2297.1929" gradientTransform="matrix(1 0 0 -1 0 4002)">
							<stop  offset="0" style="stop-color:#FFFFFF"/>
							<stop  offset="1" style="stop-color:#000000"/>
						</linearGradient>
						
							<rect x="2333.24" y="1850.42" style="mask:url(#id4_1_);fill-rule:evenodd;clip-rule:evenodd;fill:url(#SVGID_00000163056594384056969320000005745465450181632407_);" width="500.4" height="479.65"/>
					</g>
				</mask>
				
					<linearGradient id="SVGID_00000052808094973794204240000004266832467031507120_" gradientUnits="userSpaceOnUse" x1="1720.0886" y1="495.7807" x2="2818.45" y2="2297.1929" gradientTransform="matrix(1 0 0 -1 0 4002)">
					<stop  offset="0" style="stop-color:#FFFFFF"/>
					<stop  offset="1" style="stop-color:#FFFFFF"/>
				</linearGradient>
				
					<rect x="2333.24" y="1850.42" style="fill-rule:evenodd;clip-rule:evenodd;fill:url(#SVGID_00000052808094973794204240000004266832467031507120_);" width="500.4" height="479.65"/>
			</mask>
			<path style="fill-rule:evenodd;clip-rule:evenodd;fill:#000066;" d="M2558.79,2175.01c-47.17,91.14-130.09,151.62-224.51,151.62
				c0,0,412.67,58.38,497.5-400.05c0.27-1.47,0.54-2.93,0.82-4.39c-2.47-24.04-6.05-47.64-10.7-70.73
				C2773.5,2044.01,2662.61,2133.85,2558.79,2175.01L2558.79,2175.01z"/>
		</g>
	</g>
</g>
</svg>
