<?xml version="1.0" encoding="UTF-8"?>
<svg xmlns="http://www.w3.org/2000/svg" xmlns:xlink="http://www.w3.org/1999/xlink" width="250" height="250" viewBox="0 0 3000 3000">
<defs>
<clipPath id="clip-0">
<path clip-rule="nonzero" d="M 1487 1643 L 2583 1643 L 2583 2042 L 1487 2042 Z M 1487 1643 "/>
</clipPath>
<clipPath id="clip-1">
<path clip-rule="evenodd" d="M 1487.761719 1884.789062 C 1752.789062 1631.871094 2030.050781 1563.261719 2140.800781 1546.121094 C 2239.941406 1530.769531 2366.730469 1526.449219 2427.558594 1582.351562 C 2461.441406 1613.488281 2472.769531 1657.558594 2502.980469 1690.820312 C 2523.949219 1713.890625 2551.621094 1718.46875 2585.429688 1727.300781 C 2594.691406 1729.71875 2603.570312 1735.488281 2595.621094 1744.488281 C 2576.03125 1766.679688 2530.75 1783.570312 2500.671875 1789.628906 C 2431.738281 1803.511719 2369.058594 1795.949219 2303.839844 1833.859375 C 2204.808594 1891.429688 2144.621094 2032.136719 2011.191406 2040.957031 C 1925.671875 2046.609375 1919.640625 1954.429688 1834.300781 1953.71875 C 1732.191406 1952.871094 1622.921875 2014.773438 1538.679688 1962.109375 C 1524.738281 1953.390625 1512.578125 1942.96875 1503.53125 1930.828125 C 1493.269531 1917.050781 1489.148438 1901.710938 1487.761719 1884.789062 Z M 1487.761719 1884.789062 "/>
</clipPath>
<clipPath id="clip-2">
<path clip-rule="nonzero" d="M 1633 1907 L 2277 1907 L 2277 2365 L 1633 2365 Z M 1633 1907 "/>
</clipPath>
<clipPath id="clip-3">
<path clip-rule="evenodd" d="M 1647.660156 1907.378906 C 1905.828125 1903.671875 2082.078125 2000.746094 2147.558594 2044.8125 C 2206.179688 2084.261719 2273.820312 2142.589844 2278.519531 2200.4375 C 2281.128906 2232.664062 2265.890625 2260.777344 2265.589844 2292.34375 C 2265.378906 2314.246094 2277.5 2329.824219 2290.75 2350.515625 C 2294.378906 2356.183594 2296.21875 2363.402344 2287.800781 2364.242188 C 2267.039062 2366.316406 2235.53125 2353.390625 2217.078125 2342.144531 C 2174.78125 2316.371094 2145.980469 2282.542969 2094.101562 2270.925781 C 2015.320312 2253.28125 1916.808594 2297.015625 1843.578125 2237.832031 C 1796.648438 2199.902344 1837.671875 2149.527344 1793.871094 2108.398438 C 1741.46875 2059.195312 1655.320312 2038.898438 1636.96875 1971.53125 C 1633.929688 1960.378906 1632.628906 1949.199219 1633.769531 1938.628906 C 1635.058594 1926.628906 1640.269531 1916.761719 1647.660156 1907.378906 Z M 1647.660156 1907.378906 "/>
</clipPath>
<clipPath id="clip-4">
<path clip-rule="nonzero" d="M 553 2075 L 1257 2075 L 1257 2210 L 553 2210 Z M 553 2075 "/>
</clipPath>
<clipPath id="clip-5">
<path clip-rule="evenodd" d="M 566.988281 2093.800781 C 677.359375 2064.382812 1256.359375 2079.566406 1256.359375 2079.566406 L 1256.359375 2235.234375 C 1256.359375 2235.234375 701.183594 2253.980469 583.515625 2237.464844 C 517.484375 2228.199219 508.347656 2109.429688 566.988281 2093.800781 Z M 566.988281 2093.800781 "/>
</clipPath>
<clipPath id="clip-6">
<path clip-rule="nonzero" d="M 553 1946 L 1257 1946 L 1257 2081 L 553 2081 Z M 553 1946 "/>
</clipPath>
<clipPath id="clip-7">
<path clip-rule="evenodd" d="M 566.988281 1964.769531 C 677.359375 1935.359375 1256.359375 1950.539062 1256.359375 1950.539062 L 1256.359375 2106.210938 C 1256.359375 2106.210938 701.183594 2124.957031 583.515625 2108.441406 C 517.484375 2099.171875 508.347656 1980.398438 566.988281 1964.769531 Z M 566.988281 1964.769531 "/>
</clipPath>
<clipPath id="clip-8">
<path clip-rule="nonzero" d="M 553 1817 L 1257 1817 L 1257 1952 L 553 1952 Z M 553 1817 "/>
</clipPath>
<clipPath id="clip-9">
<path clip-rule="evenodd" d="M 566.988281 1835.75 C 677.359375 1806.328125 1256.359375 1821.511719 1256.359375 1821.511719 L 1256.359375 1977.179688 C 1256.359375 1977.179688 701.183594 1995.929688 583.515625 1979.410156 C 517.484375 1970.140625 508.347656 1851.378906 566.988281 1835.75 Z M 566.988281 1835.75 "/>
</clipPath>
<clipPath id="clip-10">
<path clip-rule="nonzero" d="M 553 1688 L 1257 1688 L 1257 1823 L 553 1823 Z M 553 1688 "/>
</clipPath>
<clipPath id="clip-11">
<path clip-rule="evenodd" d="M 566.988281 1706.71875 C 677.359375 1677.300781 1256.359375 1692.488281 1256.359375 1692.488281 L 1256.359375 1848.160156 C 1256.359375 1848.160156 701.183594 1866.898438 583.515625 1850.390625 C 517.484375 1841.121094 508.347656 1722.351562 566.988281 1706.71875 Z M 566.988281 1706.71875 "/>
</clipPath>
<clipPath id="clip-12">
<path clip-rule="nonzero" d="M 543 734 L 1284 734 L 1284 2291 L 543 2291 Z M 543 734 "/>
</clipPath>
<clipPath id="clip-13">
<path clip-rule="evenodd" d="M 1069.03125 692.578125 C 941.195312 689.660156 624.203125 696.511719 594.945312 729.609375 C 509.171875 826.621094 534.777344 1386.839844 646.769531 1442.421875 C 754.351562 1495.808594 836.65625 1443 920.621094 1388.441406 C 963.171875 1360.800781 1025.960938 1331.929688 1061.359375 1388.238281 C 1118.738281 1479.511719 1090.539062 1643.589844 1089.488281 1752.109375 C 1087.730469 1932.019531 1121.429688 2192.570312 1172.628906 2199.472656 C 1185.839844 2201.253906 1210.550781 2287.03125 1237.898438 2289.453125 C 1280.71875 2293.246094 1289.511719 2144.015625 1347.300781 2132.445312 C 1364.171875 2129.066406 1390.96875 2213.445312 1415.171875 2214.808594 C 1466.128906 2217.6875 1449.808594 2151.492188 1509.300781 2147.386719 C 1546.03125 2144.851562 1557.761719 2304.871094 1603.128906 2317.230469 C 1633.960938 2325.632812 1669.070312 2157.1875 1697.949219 2150.796875 C 1739.558594 2141.589844 1758.769531 2181.816406 1788.941406 2168.132812 C 1862.75 2134.664062 1860.890625 1335.769531 1781.058594 1248.558594 C 1645.710938 1100.671875 1363.148438 1187.578125 1327.609375 1175.300781 C 1289.820312 1162.238281 1280.558594 1094.390625 1276.210938 1058.351562 C 1264.628906 962.269531 1278.890625 846.820312 1229.488281 761.539062 C 1195.96875 703.660156 1125.488281 693.871094 1069.03125 692.578125 Z M 1069.03125 692.578125 "/>
</clipPath>
<clipPath id="clip-14">
<path clip-rule="nonzero" d="M 1320 2114 L 1479 2114 L 1479 2230 L 1320 2230 Z M 1320 2114 "/>
</clipPath>
<clipPath id="clip-15">
<path clip-rule="evenodd" d="M 1069.03125 692.578125 C 941.195312 689.660156 624.203125 696.511719 594.945312 729.609375 C 509.171875 826.621094 534.777344 1386.839844 646.769531 1442.421875 C 754.351562 1495.808594 836.65625 1443 920.621094 1388.441406 C 963.171875 1360.800781 1025.960938 1331.929688 1061.359375 1388.238281 C 1118.738281 1479.511719 1090.539062 1643.589844 1089.488281 1752.109375 C 1087.730469 1932.019531 1121.429688 2192.570312 1172.628906 2199.472656 C 1185.839844 2201.253906 1210.550781 2287.03125 1237.898438 2289.453125 C 1280.71875 2293.246094 1289.511719 2144.015625 1347.300781 2132.445312 C 1364.171875 2129.066406 1390.96875 2213.445312 1415.171875 2214.808594 C 1466.128906 2217.6875 1449.808594 2151.492188 1509.300781 2147.386719 C 1546.03125 2144.851562 1557.761719 2304.871094 1603.128906 2317.230469 C 1633.960938 2325.632812 1669.070312 2157.1875 1697.949219 2150.796875 C 1739.558594 2141.589844 1758.769531 2181.816406 1788.941406 2168.132812 C 1862.75 2134.664062 1860.890625 1335.769531 1781.058594 1248.558594 C 1645.710938 1100.671875 1363.148438 1187.578125 1327.609375 1175.300781 C 1289.820312 1162.238281 1280.558594 1094.390625 1276.210938 1058.351562 C 1264.628906 962.269531 1278.890625 846.820312 1229.488281 761.539062 C 1195.96875 703.660156 1125.488281 693.871094 1069.03125 692.578125 Z M 1069.03125 692.578125 "/>
</clipPath>
<clipPath id="clip-16">
<path clip-rule="nonzero" d="M 1501 2143 L 1664 2143 L 1664 2318 L 1501 2318 Z M 1501 2143 "/>
</clipPath>
<clipPath id="clip-17">
<path clip-rule="evenodd" d="M 1069.03125 692.578125 C 941.195312 689.660156 624.203125 696.511719 594.945312 729.609375 C 509.171875 826.621094 534.777344 1386.839844 646.769531 1442.421875 C 754.351562 1495.808594 836.65625 1443 920.621094 1388.441406 C 963.171875 1360.800781 1025.960938 1331.929688 1061.359375 1388.238281 C 1118.738281 1479.511719 1090.539062 1643.589844 1089.488281 1752.109375 C 1087.730469 1932.019531 1121.429688 2192.570312 1172.628906 2199.472656 C 1185.839844 2201.253906 1210.550781 2287.03125 1237.898438 2289.453125 C 1280.71875 2293.246094 1289.511719 2144.015625 1347.300781 2132.445312 C 1364.171875 2129.066406 1390.96875 2213.445312 1415.171875 2214.808594 C 1466.128906 2217.6875 1449.808594 2151.492188 1509.300781 2147.386719 C 1546.03125 2144.851562 1557.761719 2304.871094 1603.128906 2317.230469 C 1633.960938 2325.632812 1669.070312 2157.1875 1697.949219 2150.796875 C 1739.558594 2141.589844 1758.769531 2181.816406 1788.941406 2168.132812 C 1862.75 2134.664062 1860.890625 1335.769531 1781.058594 1248.558594 C 1645.710938 1100.671875 1363.148438 1187.578125 1327.609375 1175.300781 C 1289.820312 1162.238281 1280.558594 1094.390625 1276.210938 1058.351562 C 1264.628906 962.269531 1278.890625 846.820312 1229.488281 761.539062 C 1195.96875 703.660156 1125.488281 693.871094 1069.03125 692.578125 Z M 1069.03125 692.578125 "/>
</clipPath>
<clipPath id="clip-18">
<path clip-rule="nonzero" d="M 1680 2129 L 1817 2129 L 1817 2198 L 1680 2198 Z M 1680 2129 "/>
</clipPath>
<clipPath id="clip-19">
<path clip-rule="evenodd" d="M 1069.03125 692.578125 C 941.195312 689.660156 624.203125 696.511719 594.945312 729.609375 C 509.171875 826.621094 534.777344 1386.839844 646.769531 1442.421875 C 754.351562 1495.808594 836.65625 1443 920.621094 1388.441406 C 963.171875 1360.800781 1025.960938 1331.929688 1061.359375 1388.238281 C 1118.738281 1479.511719 1090.539062 1643.589844 1089.488281 1752.109375 C 1087.730469 1932.019531 1121.429688 2192.570312 1172.628906 2199.472656 C 1185.839844 2201.253906 1210.550781 2287.03125 1237.898438 2289.453125 C 1280.71875 2293.246094 1289.511719 2144.015625 1347.300781 2132.445312 C 1364.171875 2129.066406 1390.96875 2213.445312 1415.171875 2214.808594 C 1466.128906 2217.6875 1449.808594 2151.492188 1509.300781 2147.386719 C 1546.03125 2144.851562 1557.761719 2304.871094 1603.128906 2317.230469 C 1633.960938 2325.632812 1669.070312 2157.1875 1697.949219 2150.796875 C 1739.558594 2141.589844 1758.769531 2181.816406 1788.941406 2168.132812 C 1862.75 2134.664062 1860.890625 1335.769531 1781.058594 1248.558594 C 1645.710938 1100.671875 1363.148438 1187.578125 1327.609375 1175.300781 C 1289.820312 1162.238281 1280.558594 1094.390625 1276.210938 1058.351562 C 1264.628906 962.269531 1278.890625 846.820312 1229.488281 761.539062 C 1195.96875 703.660156 1125.488281 693.871094 1069.03125 692.578125 Z M 1069.03125 692.578125 "/>
</clipPath>
<clipPath id="clip-20">
<path clip-rule="nonzero" d="M 1036 1086 L 1843 1086 L 1843 1410 L 1036 1410 Z M 1036 1086 "/>
</clipPath>
<clipPath id="clip-21">
<path clip-rule="evenodd" d="M 1069.03125 692.578125 C 941.195312 689.660156 624.203125 696.511719 594.945312 729.609375 C 509.171875 826.621094 534.777344 1386.839844 646.769531 1442.421875 C 754.351562 1495.808594 836.65625 1443 920.621094 1388.441406 C 963.171875 1360.800781 1025.960938 1331.929688 1061.359375 1388.238281 C 1118.738281 1479.511719 1090.539062 1643.589844 1089.488281 1752.109375 C 1087.730469 1932.019531 1121.429688 2192.570312 1172.628906 2199.472656 C 1185.839844 2201.253906 1210.550781 2287.03125 1237.898438 2289.453125 C 1280.71875 2293.246094 1289.511719 2144.015625 1347.300781 2132.445312 C 1364.171875 2129.066406 1390.96875 2213.445312 1415.171875 2214.808594 C 1466.128906 2217.6875 1449.808594 2151.492188 1509.300781 2147.386719 C 1546.03125 2144.851562 1557.761719 2304.871094 1603.128906 2317.230469 C 1633.960938 2325.632812 1669.070312 2157.1875 1697.949219 2150.796875 C 1739.558594 2141.589844 1758.769531 2181.816406 1788.941406 2168.132812 C 1862.75 2134.664062 1860.890625 1335.769531 1781.058594 1248.558594 C 1645.710938 1100.671875 1363.148438 1187.578125 1327.609375 1175.300781 C 1289.820312 1162.238281 1280.558594 1094.390625 1276.210938 1058.351562 C 1264.628906 962.269531 1278.890625 846.820312 1229.488281 761.539062 C 1195.96875 703.660156 1125.488281 693.871094 1069.03125 692.578125 Z M 1069.03125 692.578125 "/>
</clipPath>
<clipPath id="clip-22">
<path clip-rule="nonzero" d="M 1931 1141 L 2123 1141 L 2123 1355 L 1931 1355 Z M 1931 1141 "/>
</clipPath>
<clipPath id="clip-23">
<path clip-rule="evenodd" d="M 1996.601562 1130.300781 C 2039.570312 1140.03125 2172.660156 1233.910156 2196.238281 1271.128906 C 2219.808594 1308.339844 2181.03125 1363.320312 2138.058594 1353.601562 C 2095.089844 1343.871094 1962 1249.988281 1938.429688 1212.769531 C 1914.851562 1175.558594 1953.640625 1120.578125 1996.601562 1130.300781 Z M 1996.601562 1130.300781 "/>
</clipPath>
<clipPath id="clip-24">
<path clip-rule="nonzero" d="M 1850 1210 L 2036 1210 L 2036 1424 L 1850 1424 Z M 1850 1210 "/>
</clipPath>
<clipPath id="clip-25">
<path clip-rule="evenodd" d="M 1915.378906 1205.308594 C 1958.339844 1215.03125 2091.429688 1308.921875 2115.011719 1346.128906 C 2138.578125 1383.351562 2099.800781 1438.328125 2056.828125 1428.601562 C 2013.859375 1418.878906 1880.78125 1324.988281 1857.199219 1287.78125 C 1833.621094 1250.558594 1872.410156 1195.578125 1915.378906 1205.308594 Z M 1915.378906 1205.308594 "/>
</clipPath>
<clipPath id="clip-26">
<path clip-rule="nonzero" d="M 1808 1292 L 2206 1292 L 2206 1627 L 1808 1627 Z M 1808 1292 "/>
</clipPath>
<clipPath id="clip-27">
<path clip-rule="evenodd" d="M 1899.300781 1313.570312 C 1931.480469 1250.558594 1991.769531 1189.738281 2040.019531 1188.03125 C 2116.570312 1185.308594 2315.890625 1325.921875 2339.011719 1398.941406 C 2362.140625 1471.960938 2255.289062 1623.421875 2178.75 1626.140625 C 2120.761719 1628.191406 1992.300781 1547.980469 1923.378906 1477.238281 C 1876.621094 1445.609375 1829.210938 1407.089844 1816.03125 1386.289062 C 1792.449219 1349.070312 1831.230469 1294.089844 1874.199219 1303.808594 C 1880.730469 1305.289062 1889.320312 1308.710938 1899.300781 1313.570312 Z M 1899.300781 1313.570312 "/>
</clipPath>
<clipPath id="clip-28">
<path clip-rule="nonzero" d="M 2100 1353 L 2426 1353 L 2426 1690 L 2100 1690 Z M 2100 1353 "/>
</clipPath>
<clipPath id="clip-29">
<path clip-rule="evenodd" d="M 2261.191406 1344.039062 C 2315.289062 1325.5 2424.839844 1402.769531 2425.511719 1459.960938 C 2426.191406 1517.148438 2319.339844 1668.609375 2265.238281 1687.148438 C 2211.140625 1705.699219 2101.589844 1628.421875 2100.921875 1571.230469 C 2100.238281 1514.050781 2207.089844 1362.589844 2261.191406 1344.039062 Z M 2261.191406 1344.039062 "/>
</clipPath>
<clipPath id="clip-30">
<path clip-rule="nonzero" d="M 1484 1565 L 1771 1565 L 1771 1828 L 1484 1828 Z M 1484 1565 "/>
</clipPath>
<clipPath id="clip-31">
<path clip-rule="evenodd" d="M 1646.320312 1543.789062 C 1573.71875 1626.46875 1466.410156 1805.050781 1486.738281 1825.320312 C 1507.070312 1845.589844 1685.730469 1738.269531 1768.300781 1665.410156 C 1937.621094 1516 2400.570312 1071.921875 2502.628906 928.898438 C 2544.621094 870.050781 2439.371094 765.109375 2380.648438 807.28125 C 2237.929688 909.761719 1795.308594 1374.121094 1646.320312 1543.789062 Z M 1646.320312 1543.789062 "/>
</clipPath>
<clipPath id="clip-32">
<path clip-rule="nonzero" d="M 1484 1681 L 1680 1681 L 1680 1828 L 1484 1828 Z M 1484 1681 "/>
</clipPath>
<clipPath id="clip-33">
<path clip-rule="evenodd" d="M 1646.320312 1543.789062 C 1573.71875 1626.46875 1466.410156 1805.050781 1486.738281 1825.320312 C 1507.070312 1845.589844 1685.730469 1738.269531 1768.300781 1665.410156 C 1937.621094 1516 2400.570312 1071.921875 2502.628906 928.898438 C 2544.621094 870.050781 2439.371094 765.109375 2380.648438 807.28125 C 2237.929688 909.761719 1795.308594 1374.121094 1646.320312 1543.789062 Z M 1646.320312 1543.789062 "/>
</clipPath>
<clipPath id="clip-34">
<path clip-rule="nonzero" d="M 1625 797 L 2513 797 L 2513 1790 L 1625 1790 Z M 1625 797 "/>
</clipPath>
<clipPath id="clip-35">
<path clip-rule="evenodd" d="M 1646.320312 1543.789062 C 1573.71875 1626.46875 1466.410156 1805.050781 1486.738281 1825.320312 C 1507.070312 1845.589844 1685.730469 1738.269531 1768.300781 1665.410156 C 1937.621094 1516 2400.570312 1071.921875 2502.628906 928.898438 C 2544.621094 870.050781 2439.371094 765.109375 2380.648438 807.28125 C 2237.929688 909.761719 1795.308594 1374.121094 1646.320312 1543.789062 Z M 1646.320312 1543.789062 "/>
</clipPath>
<clipPath id="clip-36">
<path clip-rule="nonzero" d="M 2179 900 L 2395 900 L 2395 1127 L 2179 1127 Z M 2179 900 "/>
</clipPath>
<clipPath id="clip-37">
<path clip-rule="evenodd" d="M 2183.839844 1087.03125 C 2168.921875 1108.660156 2197.179688 1136.828125 2218.769531 1121.851562 C 2256.460938 1095.691406 2383.921875 967.851562 2409.96875 930.078125 C 2424.878906 908.460938 2396.621094 880.28125 2375.039062 895.261719 C 2337.351562 921.421875 2209.890625 1049.261719 2183.839844 1087.03125 Z M 2183.839844 1087.03125 "/>
</clipPath>
<clipPath id="clip-38">
<path clip-rule="nonzero" d="M 2074 1140 L 2158 1140 L 2158 1325 L 2074 1325 Z M 2074 1140 "/>
</clipPath>
<clipPath id="clip-39">
<path clip-rule="evenodd" d="M 2183.789062 1151.851562 C 2243.679688 1180.191406 2264.640625 1284.160156 2263.21875 1316.960938 C 2261.789062 1349.75 2203.941406 1363.46875 2175.210938 1348.640625 C 2146.46875 1333.808594 2168.21875 1262.390625 2090.800781 1227.960938 C 2050.230469 1209.921875 2085.929688 1105.539062 2183.789062 1151.851562 Z M 2183.789062 1151.851562 "/>
</clipPath>
</defs>
<path fill-rule="evenodd" fill="rgb(93.359375%, 93.359375%, 97.264099%)" fill-opacity="1" d="M 701.464844 641.289062 C 538.410156 662.53125 417.558594 897.53125 402.847656 1018.769531 C 373.652344 1259.441406 765.769531 1351.761719 747.5625 1554.179688 C 728.664062 1764.230469 377.476562 1860.640625 455.179688 2140.050781 C 464.695312 2174.273438 481.25 2205.394531 503.066406 2232.648438 C 613.980469 2371.1875 797.84375 2367.992188 944.964844 2301.984375 C 1183.980469 2194.738281 1355.589844 1889.25 1640.269531 1898.339844 C 1886.019531 1906.191406 2041.210938 2193.203125 2298.558594 2115.5625 C 2357.539062 2097.769531 2412.191406 2064.324219 2450.160156 2013.042969 C 2666.238281 1721.21875 2239.621094 1620.71875 2150.949219 1401.128906 C 2052.261719 1156.738281 2424.148438 1089.320312 2266.710938 827.371094 C 2241.398438 785.261719 2205.410156 749.730469 2166.261719 721.949219 C 1830.511719 483.800781 1586.800781 952.359375 1289.910156 995.691406 C 1087.761719 1025.191406 1169.898438 580.269531 701.464844 641.289062 "/>
<path fill-rule="evenodd" fill="rgb(40.795898%, 89.84375%, 87.109375%)" fill-opacity="1" d="M 1487.761719 1884.789062 C 1752.789062 1631.871094 2030.050781 1563.261719 2140.800781 1546.121094 C 2239.941406 1530.769531 2366.730469 1526.449219 2427.558594 1582.351562 C 2461.441406 1613.488281 2472.769531 1657.558594 2502.980469 1690.820312 C 2523.949219 1713.890625 2551.621094 1718.46875 2585.429688 1727.300781 C 2594.691406 1729.71875 2603.570312 1735.488281 2595.621094 1744.488281 C 2576.03125 1766.679688 2530.75 1783.570312 2500.671875 1789.628906 C 2431.738281 1803.511719 2369.058594 1795.949219 2303.839844 1833.859375 C 2204.808594 1891.429688 2144.621094 2032.136719 2011.191406 2040.957031 C 1925.671875 2046.609375 1919.640625 1954.429688 1834.300781 1953.71875 C 1732.191406 1952.871094 1622.921875 2014.773438 1538.679688 1962.109375 C 1524.738281 1953.390625 1512.578125 1942.96875 1503.53125 1930.828125 C 1493.269531 1917.050781 1489.148438 1901.710938 1487.761719 1884.789062 "/>
<g clip-path="url(#clip-0)">
<g clip-path="url(#clip-1)">
<path fill-rule="evenodd" fill="rgb(12.400818%, 71.875%, 68.554688%)" fill-opacity="1" d="M 2582.839844 1755.308594 C 2584.398438 1751.199219 2569.460938 1760.078125 2564.121094 1761.960938 C 2550.238281 1766.859375 2536.308594 1770.921875 2522.128906 1774.421875 C 2481.289062 1784.5 2437.429688 1792.96875 2397.128906 1792.941406 C 2362.128906 1792.921875 2333.710938 1779.558594 2300.730469 1775.191406 C 2271.238281 1771.289062 2237.519531 1777.070312 2207.390625 1789.269531 C 2117.589844 1825.621094 2069.050781 1920.148438 1962.179688 1920.121094 C 1859.480469 1920.089844 1787.011719 1847.371094 1796.601562 1765.011719 C 1799.761719 1737.871094 1811.410156 1710.460938 1815.261719 1683.28125 C 1816.820312 1672.21875 1818.980469 1658.789062 1811.359375 1650.339844 C 1802.058594 1640.039062 1780.5 1643.648438 1765.039062 1647.269531 C 1719.359375 1657.96875 1676.609375 1681.261719 1638.75 1707.351562 C 1609.570312 1727.460938 1582.050781 1749.648438 1557.109375 1773.21875 C 1534.761719 1794.339844 1513.800781 1817.148438 1499.339844 1841.71875 C 1426.429688 1965.621094 1577.71875 2043.300781 1687.171875 2073.179688 C 1884.941406 2127.171875 2332.921875 2013.453125 2582.839844 1755.308594 "/>
</g>
</g>
<path fill-rule="evenodd" fill="rgb(100%, 100%, 100%)" fill-opacity="1" d="M 2359.011719 1659.140625 C 2354.578125 1656.609375 2347.910156 1655.980469 2340.738281 1655.898438 C 2328.320312 1655.75 2314.511719 1657.648438 2305.800781 1658.140625 C 2254.878906 1660.988281 2203.378906 1668.089844 2152.828125 1681.238281 C 2059.140625 1705.621094 1969.910156 1752.578125 1879.660156 1791.148438 C 1788.140625 1830.261719 1695.589844 1860.738281 1596.550781 1851.621094 C 1593.101562 1851.308594 1590.558594 1848.25 1590.878906 1844.800781 C 1591.191406 1841.351562 1594.25 1838.800781 1597.699219 1839.121094 C 1694.628906 1848.050781 1785.148438 1817.878906 1874.71875 1779.609375 C 1965.550781 1740.789062 2055.390625 1693.621094 2149.671875 1669.101562 C 2201.03125 1655.730469 2253.359375 1648.511719 2305.101562 1645.601562 C 2314.019531 1645.101562 2328.171875 1643.191406 2340.890625 1643.339844 C 2350.480469 1643.460938 2359.308594 1644.859375 2365.230469 1648.238281 C 2368.238281 1649.949219 2369.289062 1653.789062 2367.578125 1656.800781 C 2365.859375 1659.808594 2362.019531 1660.859375 2359.011719 1659.140625 "/>
<path fill-rule="evenodd" fill="rgb(100%, 100%, 100%)" fill-opacity="1" d="M 2238.589844 1574.789062 C 2236.410156 1574.46875 2233.75 1575.128906 2231.078125 1575.878906 C 2227.539062 1576.878906 2224.011719 1578.199219 2221.179688 1579.058594 C 2207.230469 1583.289062 2193.371094 1588.21875 2179.671875 1593.429688 C 2142.839844 1607.449219 2109.058594 1625.519531 2076.398438 1648.269531 C 2039.921875 1673.699219 2004.050781 1703.488281 1959.859375 1710.75 C 1956.441406 1711.308594 1953.210938 1708.988281 1952.648438 1705.570312 C 1952.089844 1702.148438 1954.410156 1698.921875 1957.828125 1698.359375 C 2000.171875 1691.410156 2034.261719 1662.339844 2069.21875 1637.96875 C 2102.730469 1614.621094 2137.410156 1596.078125 2175.199219 1581.699219 C 2189.171875 1576.378906 2203.308594 1571.351562 2217.539062 1567.039062 C 2224.03125 1565.078125 2233.78125 1561.390625 2240.421875 1562.371094 C 2243.851562 1562.878906 2246.21875 1566.070312 2245.71875 1569.5 C 2245.210938 1572.921875 2242.019531 1575.300781 2238.589844 1574.789062 "/>
<path fill-rule="evenodd" fill="rgb(100%, 100%, 100%)" fill-opacity="1" d="M 2269.828125 1738.699219 C 2256.078125 1737.710938 2242.269531 1733.460938 2228.320312 1732.210938 C 2177.53125 1727.671875 2124.359375 1726.058594 2072.320312 1736.75 C 2068.929688 1737.441406 2065.609375 1735.261719 2064.910156 1731.859375 C 2064.210938 1728.46875 2066.398438 1725.148438 2069.800781 1724.449219 C 2123.050781 1713.519531 2177.460938 1715.058594 2229.441406 1719.710938 C 2243.320312 1720.941406 2257.050781 1725.191406 2270.730469 1726.179688 C 2274.191406 1726.429688 2276.789062 1729.441406 2276.539062 1732.890625 C 2276.289062 1736.351562 2273.289062 1738.949219 2269.828125 1738.699219 "/>
<path fill-rule="evenodd" fill="rgb(100%, 100%, 100%)" fill-opacity="1" d="M 2062.46875 1802.558594 C 2064.878906 1802.179688 2067.398438 1803.230469 2068.78125 1805.429688 C 2070.621094 1808.371094 2069.730469 1812.238281 2066.789062 1814.078125 C 2065.628906 1814.800781 2063.578125 1815.46875 2060.871094 1815.070312 C 2057.699219 1814.589844 2051.78125 1812.078125 2050.410156 1811.730469 C 2040.050781 1809.140625 2029.238281 1807.460938 2018.53125 1805.929688 C 1979.71875 1800.390625 1941.53125 1799.480469 1901.238281 1806.308594 C 1897.828125 1806.890625 1894.578125 1804.589844 1894.011719 1801.171875 C 1893.429688 1797.761719 1895.730469 1794.519531 1899.140625 1793.941406 C 1940.761719 1786.871094 1980.210938 1787.78125 2020.308594 1793.511719 C 2031.441406 1795.101562 2042.679688 1796.859375 2053.460938 1799.558594 C 2054.550781 1799.828125 2061.070312 1802.078125 2062.46875 1802.558594 "/>
<path fill-rule="evenodd" fill="rgb(40.795898%, 89.84375%, 87.109375%)" fill-opacity="1" d="M 1647.660156 1907.378906 C 1905.828125 1903.671875 2082.078125 2000.746094 2147.558594 2044.8125 C 2206.179688 2084.261719 2273.820312 2142.589844 2278.519531 2200.4375 C 2281.128906 2232.664062 2265.890625 2260.777344 2265.589844 2292.34375 C 2265.378906 2314.246094 2277.5 2329.824219 2290.75 2350.515625 C 2294.378906 2356.183594 2296.21875 2363.402344 2287.800781 2364.242188 C 2267.039062 2366.316406 2235.53125 2353.390625 2217.078125 2342.144531 C 2174.78125 2316.371094 2145.980469 2282.542969 2094.101562 2270.925781 C 2015.320312 2253.28125 1916.808594 2297.015625 1843.578125 2237.832031 C 1796.648438 2199.902344 1837.671875 2149.527344 1793.871094 2108.398438 C 1741.46875 2059.195312 1655.320312 2038.898438 1636.96875 1971.53125 C 1633.929688 1960.378906 1632.628906 1949.199219 1633.769531 1938.628906 C 1635.058594 1926.628906 1640.269531 1916.761719 1647.660156 1907.378906 "/>
<g clip-path="url(#clip-2)">
<g clip-path="url(#clip-3)">
<path fill-rule="evenodd" fill="rgb(12.400818%, 71.875%, 68.554688%)" fill-opacity="1" d="M 2276 2363.707031 C 2278.78125 2362.335938 2266.800781 2359.777344 2263.140625 2358.195312 C 2253.621094 2354.085938 2244.46875 2349.53125 2235.460938 2344.558594 C 2209.511719 2330.242188 2182.769531 2313.660156 2161.941406 2294.394531 C 2143.851562 2277.667969 2135.550781 2257.210938 2120.589844 2239.210938 C 2107.199219 2223.113281 2087 2209.992188 2065.570312 2201.882812 C 2001.730469 2177.71875 1931.351562 2203.234375 1876.101562 2152.175781 C 1823 2103.105469 1817.078125 1897.699219 1785 1893.050781 C 1760.28125 1889.480469 1761.128906 1882.789062 1736.949219 1883.019531 C 1715.28125 1883.230469 1693.511719 1884.96875 1674.269531 1890.71875 C 1577.230469 1919.730469 1618.28125 2032.003906 1660.578125 2099.671875 C 1737.011719 2221.949219 2023.140625 2377.328125 2276 2363.707031 "/>
</g>
</g>
<path fill-rule="evenodd" fill="rgb(100%, 100%, 100%)" fill-opacity="1" d="M 2205.53125 2207.382812 C 2204.480469 2204.050781 2201.390625 2200.636719 2197.808594 2197.253906 C 2191.46875 2191.261719 2183.441406 2185.65625 2178.710938 2181.757812 C 2151.050781 2158.941406 2121.058594 2138.03125 2088.671875 2120.691406 C 2028.589844 2088.523438 1959.988281 2070.109375 1894.890625 2046.890625 C 1828.699219 2023.28125 1766.121094 1994.710938 1719.179688 1942.601562 C 1717.28125 1940.5 1717.5 1937.308594 1719.660156 1935.488281 C 1721.820312 1933.679688 1725.121094 1933.910156 1727.011719 1936.011719 C 1772.769531 1986.800781 1833.921875 2014.425781 1898.441406 2037.4375 C 1964.039062 2060.835938 2033.128906 2079.464844 2093.671875 2111.882812 C 2126.679688 2129.554688 2157.25 2150.855469 2185.441406 2174.105469 C 2190.308594 2178.117188 2198.558594 2183.90625 2205.070312 2190.074219 C 2210.070312 2194.800781 2214.03125 2199.835938 2215.5 2204.496094 C 2216.339844 2207.160156 2214.789062 2209.972656 2212.039062 2210.765625 C 2209.289062 2211.5625 2206.378906 2210.046875 2205.53125 2207.382812 "/>
<path fill-rule="evenodd" fill="rgb(100%, 100%, 100%)" fill-opacity="1" d="M 2183.761719 2106.613281 C 2182.839844 2105.480469 2181.238281 2104.628906 2179.609375 2103.796875 C 2177.300781 2102.621094 2174.851562 2101.621094 2172.980469 2100.710938 C 2163.761719 2096.234375 2154.25 2092.160156 2144.691406 2088.3125 C 2119 2077.976562 2092.949219 2071.164062 2065.238281 2067.300781 C 2034.058594 2062.953125 2001.121094 2061.125 1974.679688 2043.683594 C 1972.289062 2042.109375 1971.671875 2038.96875 1973.28125 2036.675781 C 1974.890625 2034.382812 1978.128906 2033.796875 1980.511719 2035.367188 C 2005.628906 2051.9375 2037.050781 2053.195312 2066.660156 2057.328125 C 2095.25 2061.3125 2122.128906 2068.34375 2148.628906 2079.011719 C 2158.429688 2082.953125 2168.171875 2087.125 2177.609375 2091.710938 C 2182 2093.839844 2188.921875 2096.6875 2191.960938 2100.449219 C 2193.730469 2102.648438 2193.339844 2105.816406 2191.070312 2107.515625 C 2188.808594 2109.21875 2185.53125 2108.8125 2183.761719 2106.613281 "/>
<path fill-rule="evenodd" fill="rgb(100%, 100%, 100%)" fill-opacity="1" d="M 2121.460938 2206.011719 C 2114.820312 2198.933594 2109.710938 2190.144531 2103.089844 2182.835938 C 2079.050781 2156.289062 2052.378906 2130.121094 2020.421875 2110.808594 C 2017.96875 2109.332031 2017.210938 2106.21875 2018.71875 2103.863281 C 2020.238281 2101.507812 2023.449219 2100.792969 2025.898438 2102.273438 C 2058.738281 2122.117188 2086.199219 2148.945312 2110.910156 2176.222656 C 2117.488281 2183.488281 2122.558594 2192.230469 2129.160156 2199.269531 C 2131.101562 2201.339844 2130.949219 2204.527344 2128.820312 2206.386719 C 2126.699219 2208.25 2123.398438 2208.082031 2121.460938 2206.011719 "/>
<path fill-rule="evenodd" fill="rgb(100%, 100%, 100%)" fill-opacity="1" d="M 1984.878906 2139.132812 C 1986.449219 2140.257812 1987.308594 2142.183594 1986.921875 2144.148438 C 1986.390625 2146.878906 1983.660156 2148.660156 1980.828125 2148.121094 C 1979.761719 2147.917969 1978.160156 2147.214844 1976.789062 2145.507812 C 1975.359375 2143.734375 1973.480469 2139.578125 1972.941406 2138.746094 C 1968.828125 2132.480469 1964.058594 2126.46875 1959.269531 2120.585938 C 1941.898438 2099.257812 1922.640625 2080.597656 1898.609375 2064.921875 C 1896.210938 2063.359375 1895.570312 2060.226562 1897.160156 2057.921875 C 1898.761719 2055.617188 1902 2055.015625 1904.390625 2056.574219 C 1929.371094 2072.863281 1949.390625 2092.222656 1967.441406 2114.382812 C 1972.449219 2120.539062 1977.441406 2126.835938 1981.730469 2133.394531 C 1982.148438 2134.03125 1984.328125 2138.109375 1984.878906 2139.132812 "/>
<path fill-rule="evenodd" fill="rgb(83.984375%, 55.076599%, 1.400757%)" fill-opacity="1" d="M 566.988281 2093.800781 C 677.359375 2064.382812 1256.359375 2079.566406 1256.359375 2079.566406 L 1256.359375 2235.234375 C 1256.359375 2235.234375 701.183594 2253.980469 583.515625 2237.464844 C 517.484375 2228.199219 508.347656 2109.429688 566.988281 2093.800781 "/>
<g clip-path="url(#clip-4)">
<g clip-path="url(#clip-5)">
<path fill-rule="evenodd" fill="rgb(98.4375%, 67.1875%, 9.008789%)" fill-opacity="1" d="M 592.03125 2059.242188 C 702.398438 2029.824219 1281.398438 2045.007812 1281.398438 2045.007812 L 1281.398438 2200.675781 C 1281.398438 2200.675781 726.222656 2219.425781 608.554688 2202.910156 C 542.527344 2193.640625 533.390625 2074.871094 592.03125 2059.242188 "/>
</g>
</g>
<path fill-rule="evenodd" fill="rgb(83.984375%, 55.076599%, 1.400757%)" fill-opacity="1" d="M 566.988281 1964.769531 C 677.359375 1935.359375 1256.359375 1950.539062 1256.359375 1950.539062 L 1256.359375 2106.210938 C 1256.359375 2106.210938 701.183594 2124.957031 583.515625 2108.441406 C 517.484375 2099.171875 508.347656 1980.398438 566.988281 1964.769531 "/>
<g clip-path="url(#clip-6)">
<g clip-path="url(#clip-7)">
<path fill-rule="evenodd" fill="rgb(98.4375%, 67.1875%, 9.008789%)" fill-opacity="1" d="M 592.03125 1930.21875 C 702.398438 1900.800781 1281.398438 1915.980469 1281.398438 1915.980469 L 1281.398438 2071.652344 C 1281.398438 2071.652344 726.222656 2090.398438 608.554688 2073.882812 C 542.527344 2064.613281 533.390625 1945.851562 592.03125 1930.21875 "/>
</g>
</g>
<path fill-rule="evenodd" fill="rgb(83.984375%, 55.076599%, 1.400757%)" fill-opacity="1" d="M 566.988281 1835.75 C 677.359375 1806.328125 1256.359375 1821.511719 1256.359375 1821.511719 L 1256.359375 1977.179688 C 1256.359375 1977.179688 701.183594 1995.929688 583.515625 1979.410156 C 517.484375 1970.140625 508.347656 1851.378906 566.988281 1835.75 "/>
<g clip-path="url(#clip-8)">
<g clip-path="url(#clip-9)">
<path fill-rule="evenodd" fill="rgb(98.4375%, 67.1875%, 9.008789%)" fill-opacity="1" d="M 592.03125 1801.191406 C 702.398438 1771.769531 1281.398438 1786.960938 1281.398438 1786.960938 L 1281.398438 1942.621094 C 1281.398438 1942.621094 726.222656 1961.371094 608.554688 1944.859375 C 542.527344 1935.589844 533.390625 1816.820312 592.03125 1801.191406 "/>
</g>
</g>
<path fill-rule="evenodd" fill="rgb(83.984375%, 55.076599%, 1.400757%)" fill-opacity="1" d="M 566.988281 1706.71875 C 677.359375 1677.300781 1256.359375 1692.488281 1256.359375 1692.488281 L 1256.359375 1848.160156 C 1256.359375 1848.160156 701.183594 1866.898438 583.515625 1850.390625 C 517.484375 1841.121094 508.347656 1722.351562 566.988281 1706.71875 "/>
<g clip-path="url(#clip-10)">
<g clip-path="url(#clip-11)">
<path fill-rule="evenodd" fill="rgb(98.4375%, 67.1875%, 9.008789%)" fill-opacity="1" d="M 592.03125 1672.160156 C 702.398438 1642.75 1281.398438 1657.929688 1281.398438 1657.929688 L 1281.398438 1813.601562 C 1281.398438 1813.601562 726.222656 1832.339844 608.554688 1815.828125 C 542.527344 1806.558594 533.390625 1687.789062 592.03125 1672.160156 "/>
</g>
</g>
<path fill-rule="evenodd" fill="rgb(83.984375%, 54.881287%, 1.597595%)" fill-opacity="1" d="M 917.222656 1678.25 C 723.140625 1678.25 565.566406 1690.171875 565.566406 1704.859375 C 565.566406 1719.558594 723.140625 1731.480469 917.222656 1731.480469 C 1111.308594 1731.480469 1268.878906 1719.558594 1268.878906 1704.859375 C 1268.878906 1690.171875 1111.308594 1678.25 917.222656 1678.25 "/>
<path fill-rule="evenodd" fill="rgb(12.5%, 71.875%, 68.554688%)" fill-opacity="1" d="M 1280.101562 2037.390625 C 1283.609375 2039.046875 1143.339844 2144.039062 1141.03125 2140.929688 C 1136.019531 2134.226562 1130.21875 2128.167969 1124.269531 2122.304688 C 1106.898438 2105.179688 1088.199219 2089.351562 1068.628906 2074.8125 C 1011.679688 2032.519531 947.839844 2002.664062 877.816406 1989.859375 C 800.765625 1975.769531 719.105469 1990.960938 642.742188 2009.253906 C 564.636719 2027.96875 545.136719 2000.09375 558.214844 1924.300781 C 572.21875 1843.148438 679.84375 1668.910156 724.597656 1598.78125 C 768.511719 1529.960938 831.183594 1573.441406 932.558594 1558.46875 C 932.757812 1559.121094 954.023438 1570.710938 962.480469 1576.140625 C 1002.628906 1601.929688 1040.101562 1632.890625 1073.929688 1666.488281 C 1169.390625 1761.328125 1255.828125 1901.730469 1280.101562 2037.390625 "/>
<path fill-rule="evenodd" fill="rgb(40.795898%, 89.84375%, 87.109375%)" fill-opacity="1" d="M 1297.539062 2082.601562 C 1300.359375 2085.25 1134.660156 2142.152344 1133.398438 2138.484375 C 1130.691406 2130.566406 1127.03125 2123.023438 1123.171875 2115.617188 C 1111.890625 2093.988281 1098.949219 2073.1875 1084.78125 2053.34375 C 1043.550781 1995.621094 991.949219 1947.621094 929.230469 1913.949219 C 860.21875 1876.910156 777.835938 1866.308594 699.542969 1860.289062 C 619.460938 1854.140625 609.449219 1821.628906 645.148438 1753.511719 C 683.375 1680.558594 839.261719 1547.738281 903.371094 1494.71875 C 966.28125 1442.699219 1012.589844 1503.308594 1113.671875 1520.148438 C 1113.660156 1520.839844 1130.351562 1538.390625 1136.730469 1546.148438 C 1167.03125 1583.011719 1193.199219 1623.980469 1215.089844 1666.339844 C 1276.851562 1785.890625 1316.050781 1946.039062 1297.539062 2082.601562 "/>
<path fill-rule="evenodd" fill="rgb(100%, 100%, 100%)" fill-opacity="1" d="M 758.105469 1801.691406 C 757.9375 1801.988281 757.574219 1802.621094 757.304688 1802.980469 C 756.644531 1803.839844 755.878906 1804.660156 755.085938 1805.449219 C 752.367188 1808.179688 749.378906 1810.671875 747.160156 1812.988281 C 745.238281 1815.011719 741.195312 1819.378906 739.492188 1823.308594 C 737.445312 1828.019531 737.554688 1832.648438 739.320312 1836.609375 C 741.058594 1840.488281 744.390625 1843.609375 749.277344 1845.101562 C 752.738281 1846.148438 757.828125 1846.019531 760.152344 1846.011719 C 770.34375 1845.988281 780.578125 1844.328125 790.753906 1843.789062 C 826.996094 1841.820312 863.511719 1850.121094 897.007812 1863.699219 C 999.988281 1905.460938 1075.578125 1984.050781 1143.890625 2068.71875 C 1148.269531 2074.148438 1156.238281 2075 1161.671875 2070.617188 C 1167.101562 2066.238281 1167.949219 2058.269531 1163.570312 2052.839844 C 1092.558594 1964.828125 1013.550781 1883.671875 906.507812 1840.269531 C 869.597656 1825.308594 829.324219 1816.371094 789.390625 1818.539062 C 785.035156 1818.769531 780.667969 1819.230469 776.300781 1819.671875 C 776.871094 1819.011719 777.40625 1818.328125 777.910156 1817.640625 C 781.988281 1812.039062 784.125 1805.761719 783.261719 1798.898438 C 781.734375 1786.820312 773.457031 1778.960938 763.074219 1772.820312 C 759.230469 1770.550781 755.128906 1768.511719 751.691406 1766.078125 C 749.953125 1764.859375 747.996094 1763.820312 748.253906 1761.429688 C 749.105469 1753.449219 753.375 1745.71875 758.335938 1738.371094 C 764.3125 1729.519531 771.476562 1721.300781 777.175781 1714.109375 C 809.945312 1672.78125 848.660156 1636.199219 887.699219 1600.878906 C 895.375 1593.941406 904.339844 1584.441406 914.054688 1576.128906 C 922.144531 1569.210938 930.648438 1562.921875 939.511719 1561.089844 C 945.417969 1559.871094 950.410156 1561.921875 955.230469 1564.53125 C 959.9375 1567.070312 964.472656 1570.238281 969.113281 1573.148438 C 979.414062 1579.609375 990.242188 1584.691406 1002.839844 1584.148438 C 1016.148438 1583.589844 1028.890625 1574.671875 1036.871094 1564.570312 C 1037.488281 1563.789062 1038.800781 1561.839844 1039.898438 1560.140625 C 1046.679688 1562.488281 1053.589844 1566.738281 1060.359375 1571.269531 C 1070.421875 1578.011719 1080.089844 1585.539062 1088.398438 1590.691406 C 1148.429688 1627.878906 1195.511719 1680.089844 1251.03125 1722.75 C 1256.558594 1727.011719 1264.5 1725.96875 1268.75 1720.429688 C 1273.011719 1714.898438 1271.96875 1706.960938 1266.429688 1702.699219 C 1210.25 1659.53125 1162.46875 1606.828125 1101.71875 1569.191406 C 1084.210938 1558.339844 1060.679688 1538.019531 1039.710938 1533.941406 C 1034.679688 1532.960938 1029.648438 1534.308594 1025.238281 1538.109375 C 1021.878906 1541 1018.871094 1546.570312 1017.03125 1548.890625 C 1013.328125 1553.578125 1007.960938 1558.628906 1001.78125 1558.890625 C 996.691406 1559.109375 992.261719 1557.230469 987.992188 1554.941406 C 981.863281 1551.640625 976.070312 1547.371094 970.078125 1543.871094 C 959.230469 1537.53125 947.808594 1533.550781 934.386719 1536.328125 C 924.070312 1538.460938 913.78125 1544.191406 904.097656 1551.640625 C 891.71875 1561.160156 880.246094 1573.53125 870.738281 1582.128906 C 830.667969 1618.378906 790.996094 1655.980469 757.359375 1698.398438 C 744.289062 1714.890625 725.464844 1736.691406 723.109375 1758.75 C 721.617188 1772.699219 728.773438 1781.480469 739.488281 1788.339844 C 743.421875 1790.859375 747.890625 1793.089844 751.941406 1795.640625 C 754.582031 1797.308594 757.519531 1798.671875 758.105469 1801.691406 "/>
<path fill-rule="nonzero" fill="rgb(100%, 100%, 100%)" fill-opacity="1" d="M 965.664062 1847.980469 L 982.089844 1826.46875 C 970.382812 1815.390625 961.863281 1805.070312 956.535156 1795.519531 C 951.207031 1785.96875 948.589844 1775.109375 948.6875 1762.949219 C 948.78125 1750.789062 952.617188 1738.769531 960.1875 1726.898438 L 988.910156 1742.398438 C 982.074219 1755.460938 979.089844 1766.609375 979.953125 1775.851562 C 981.285156 1788.96875 986.621094 1799.789062 995.953125 1808.308594 L 1048.230469 1739.828125 C 1039.039062 1730.160156 1030.941406 1718.558594 1023.949219 1705.019531 C 1018.75 1695 1016.539062 1684.929688 1017.320312 1674.808594 C 1018.109375 1664.679688 1021.78125 1655.320312 1028.351562 1646.71875 C 1040.03125 1631.421875 1055.898438 1623.929688 1075.980469 1624.25 C 1089.429688 1624.429688 1105.148438 1630.25 1123.140625 1641.710938 L 1130.980469 1631.441406 L 1145.988281 1642.890625 L 1138.140625 1653.171875 C 1152.050781 1665.671875 1161 1678.308594 1165 1691.070312 C 1170.171875 1707.378906 1168.691406 1723.210938 1160.558594 1738.570312 L 1131.671875 1721.808594 C 1136.609375 1712.210938 1138.410156 1703.339844 1137.078125 1695.210938 C 1135.75 1687.058594 1131.480469 1679.109375 1124.28125 1671.328125 L 1076.921875 1733.359375 C 1087.691406 1745.859375 1094.570312 1754.460938 1097.570312 1759.140625 C 1103.238281 1768.140625 1106.96875 1776.660156 1108.75 1784.710938 C 1110.53125 1792.75 1110.539062 1800.699219 1108.789062 1808.570312 C 1107.039062 1816.441406 1103.578125 1823.761719 1098.410156 1830.53125 C 1087.039062 1845.429688 1071.929688 1853.570312 1053.101562 1854.960938 C 1034.269531 1856.339844 1015.660156 1850.589844 997.273438 1837.691406 L 980.671875 1859.441406 Z M 1109.449219 1659.640625 C 1098.570312 1653.351562 1088.210938 1650.730469 1078.359375 1651.789062 C 1068.519531 1652.851562 1060.761719 1657.089844 1055.109375 1664.488281 C 1049.511719 1671.820312 1047.261719 1679.808594 1048.351562 1688.460938 C 1049.441406 1697.109375 1054.660156 1707.339844 1064.019531 1719.148438 Z M 1010.960938 1819.761719 C 1021.660156 1826.289062 1032.609375 1828.910156 1043.820312 1827.640625 C 1055.03125 1826.359375 1064.128906 1821.140625 1071.128906 1811.96875 C 1077.089844 1804.171875 1079.589844 1796.140625 1078.628906 1787.910156 C 1077.671875 1779.679688 1071.78125 1768.460938 1060.960938 1754.269531 L 1010.960938 1819.761719 "/>
<path fill-rule="evenodd" fill="rgb(59.568787%, 54.881287%, 92.1875%)" fill-opacity="1" d="M 1069.03125 692.578125 C 941.195312 689.660156 624.203125 696.511719 594.945312 729.609375 C 509.171875 826.621094 534.777344 1386.839844 646.769531 1442.421875 C 754.351562 1495.808594 836.65625 1443 920.621094 1388.441406 C 963.171875 1360.800781 1025.960938 1331.929688 1061.359375 1388.238281 C 1118.738281 1479.511719 1090.539062 1643.589844 1089.488281 1752.109375 C 1087.730469 1932.019531 1121.429688 2192.570312 1172.628906 2199.472656 C 1185.839844 2201.253906 1210.550781 2287.03125 1237.898438 2289.453125 C 1280.71875 2293.246094 1289.511719 2144.015625 1347.300781 2132.445312 C 1364.171875 2129.066406 1390.96875 2213.445312 1415.171875 2214.808594 C 1466.128906 2217.6875 1449.808594 2151.492188 1509.300781 2147.386719 C 1546.03125 2144.851562 1557.761719 2304.871094 1603.128906 2317.230469 C 1633.960938 2325.632812 1669.070312 2157.1875 1697.949219 2150.796875 C 1739.558594 2141.589844 1758.769531 2181.816406 1788.941406 2168.132812 C 1862.75 2134.664062 1860.890625 1335.769531 1781.058594 1248.558594 C 1645.710938 1100.671875 1363.148438 1187.578125 1327.609375 1175.300781 C 1289.820312 1162.238281 1280.558594 1094.390625 1276.210938 1058.351562 C 1264.628906 962.269531 1278.890625 846.820312 1229.488281 761.539062 C 1195.96875 703.660156 1125.488281 693.871094 1069.03125 692.578125 "/>
<g clip-path="url(#clip-12)">
<g clip-path="url(#clip-13)">
<path fill-rule="evenodd" fill="rgb(41.992188%, 34.910583%, 88.671875%)" fill-opacity="1" d="M 543.875 766.050781 C 577.171875 684.660156 672.835938 780.289062 665.574219 820.78125 C 643.253906 945.210938 633.078125 1120.03125 697.769531 1231.460938 C 742.421875 1308.371094 840.707031 1361.441406 919.828125 1329.398438 C 1005.601562 1294.671875 1059.648438 1307.210938 1105.28125 1354.300781 C 1155.691406 1406.328125 1155.039062 1496.261719 1156.808594 1564.550781 C 1158.179688 1617.28125 1111.769531 1956.71875 1146.671875 2056.863281 C 1169.289062 2121.796875 1139.320312 2161.058594 1183.488281 2190.09375 C 1215.371094 2211.054688 1209.238281 2251.3125 1237.75 2270.257812 C 1262.101562 2286.441406 1286.769531 2280.296875 1282.609375 2285.585938 C 1269.359375 2302.429688 1130.679688 2271.597656 1102.109375 2279.390625 C 970.496094 2315.285156 871.964844 2162.886719 817.609375 2062.890625 C 803.960938 2037.78125 791.199219 2012.183594 778.761719 1986.398438 C 765.304688 1958.519531 752.097656 1930.488281 738.929688 1902.449219 C 691.082031 1800.558594 649.007812 1695.941406 604.386719 1592.519531 C 506.996094 1366.78125 461.519531 967.339844 543.875 766.050781 "/>
</g>
</g>
<g clip-path="url(#clip-14)">
<g clip-path="url(#clip-15)">
<path fill-rule="evenodd" fill="rgb(41.992188%, 34.910583%, 88.671875%)" fill-opacity="1" d="M 1330.011719 2163.578125 C 1330.148438 2163.546875 1330.589844 2160.160156 1330.671875 2159.886719 C 1331.921875 2155.734375 1318.929688 2155.230469 1320.78125 2151.3125 C 1326.558594 2139.113281 1352.351562 2114.585938 1368.390625 2114.832031 C 1377.339844 2114.96875 1381.679688 2123.1875 1384.949219 2130.363281 C 1392.390625 2146.660156 1395.441406 2164.441406 1406.621094 2178.90625 C 1415.980469 2191.007812 1431.878906 2201.148438 1447.820312 2199.914062 C 1455.601562 2199.3125 1461.671875 2194.917969 1468.820312 2192.46875 C 1472.019531 2191.371094 1475.679688 2190.964844 1477.601562 2194.410156 C 1480.128906 2198.964844 1478.171875 2204.859375 1475.789062 2209.019531 C 1469.648438 2219.734375 1457.730469 2227.058594 1445.78125 2229.304688 C 1413.820312 2235.316406 1352.609375 2184.859375 1330.011719 2163.578125 "/>
</g>
</g>
<g clip-path="url(#clip-16)">
<g clip-path="url(#clip-17)">
<path fill-rule="evenodd" fill="rgb(41.992188%, 34.910583%, 88.671875%)" fill-opacity="1" d="M 1501.070312 2161.914062 C 1501.179688 2162.003906 1504.960938 2157.402344 1505.359375 2156.957031 C 1508.230469 2153.835938 1511.359375 2150.824219 1514.628906 2148.140625 C 1524.980469 2139.65625 1539.929688 2144.210938 1547.550781 2154.136719 C 1555.128906 2164.019531 1558.75 2176.441406 1562.308594 2188.179688 C 1568.089844 2207.214844 1572.359375 2226.667969 1578.410156 2245.628906 C 1582.640625 2258.882812 1587.78125 2275.558594 1599.808594 2283.9375 C 1602.460938 2285.789062 1605.398438 2287.089844 1608.519531 2287.957031 C 1629.539062 2293.796875 1637.519531 2273.234375 1651.941406 2263.835938 C 1657.910156 2259.949219 1661.621094 2264.507812 1662.820312 2270.359375 C 1668.058594 2295.773438 1648.488281 2326.347656 1622.75 2330.707031 C 1607.558594 2333.28125 1591.730469 2327.207031 1579.078125 2319.183594 C 1533.878906 2290.503906 1508.988281 2212.332031 1501.070312 2161.914062 "/>
</g>
</g>
<g clip-path="url(#clip-18)">
<g clip-path="url(#clip-19)">
<path fill-rule="evenodd" fill="rgb(41.992188%, 34.910583%, 88.671875%)" fill-opacity="1" d="M 1680.78125 2178.496094 C 1680.871094 2178.503906 1681.191406 2176.882812 1681.230469 2176.75 C 1681.570312 2175.660156 1681.929688 2174.578125 1682.320312 2173.511719 C 1683.660156 2169.851562 1685.261719 2166.277344 1686.96875 2162.777344 C 1692.308594 2151.867188 1698.421875 2139.527344 1709.300781 2133.195312 C 1737.339844 2116.871094 1753.03125 2156.316406 1777.960938 2160.847656 C 1783.78125 2161.902344 1789.898438 2161.933594 1795.730469 2161.019531 C 1802.171875 2160.015625 1810.738281 2157.410156 1814.761719 2164.511719 C 1821.558594 2176.519531 1802.890625 2188.40625 1794.449219 2192.425781 C 1768.878906 2204.589844 1705.050781 2192.324219 1680.78125 2178.496094 "/>
</g>
</g>
<g clip-path="url(#clip-20)">
<g clip-path="url(#clip-21)">
<path fill-rule="evenodd" fill="rgb(75.78125%, 72.851562%, 95.3125%)" fill-opacity="1" d="M 1347.960938 1107.359375 C 1355.140625 1106.761719 1364.859375 1134.339844 1366.429688 1139.539062 C 1376.210938 1171.820312 1361.53125 1193.570312 1303.578125 1206.570312 C 1182.808594 1233.660156 1098.261719 1241.738281 1049.800781 1274.53125 C 966.808594 1330.679688 1310.039062 1280.058594 1356.96875 1310.109375 C 1389.488281 1330.941406 1344.800781 1362.078125 1332.191406 1377.710938 C 1327.738281 1383.21875 1316.980469 1396.75 1324.78125 1403.660156 C 1336.949219 1414.449219 1361.539062 1404.339844 1374.011719 1399.960938 C 1413.910156 1385.949219 1450.140625 1362.871094 1491.609375 1353.21875 C 1505.230469 1350.039062 1542.328125 1342.238281 1543.941406 1366.21875 C 1544.460938 1374.011719 1525.421875 1406.359375 1537.261719 1408.71875 C 1548.988281 1411.058594 1565.378906 1400.640625 1575.351562 1395.769531 C 1601.871094 1382.808594 1627.378906 1366.371094 1656.089844 1359.039062 C 1715.699219 1343.800781 1751.351562 1383.398438 1803.511719 1402.398438 C 1827.449219 1411.128906 1860.648438 1414.519531 1878.480469 1391.261719 C 1914.101562 1344.78125 1877.78125 1262.691406 1852.890625 1220.921875 C 1838.628906 1196.988281 1821.089844 1174.480469 1801.589844 1154.980469 C 1716.648438 1070.058594 1452.648438 1076.820312 1347.960938 1107.359375 "/>
</g>
</g>
<path fill-rule="evenodd" fill="rgb(100%, 100%, 100%)" fill-opacity="1" d="M 746.792969 820.398438 C 820.890625 810.660156 896.273438 808.800781 970.839844 805.148438 C 978.824219 804.761719 984.988281 797.960938 984.597656 789.980469 C 984.210938 781.988281 977.410156 775.828125 969.425781 776.21875 C 894.070312 779.898438 817.898438 781.828125 743.019531 791.679688 C 735.09375 792.71875 729.503906 800 730.546875 807.929688 C 731.585938 815.851562 738.867188 821.441406 746.792969 820.398438 "/>
<path fill-rule="evenodd" fill="rgb(100%, 100%, 100%)" fill-opacity="1" d="M 756.683594 910.210938 C 800.226562 909.070312 858.171875 903.261719 901.679688 901.101562 C 909.664062 900.710938 915.824219 893.898438 915.425781 885.921875 C 915.03125 877.929688 908.226562 871.769531 900.242188 872.171875 C 856.9375 874.320312 799.265625 880.121094 755.929688 881.25 C 747.9375 881.460938 741.617188 888.121094 741.828125 896.109375 C 742.035156 904.101562 748.691406 910.421875 756.683594 910.210938 "/>
<path fill-rule="evenodd" fill="rgb(100%, 100%, 100%)" fill-opacity="1" d="M 761.144531 1018.769531 C 770.550781 1019.789062 782.824219 1015.839844 792.238281 1014.808594 C 814.613281 1012.339844 836.996094 1010.320312 859.449219 1008.628906 C 931.46875 1003.199219 1003.71875 999.371094 1075.828125 995.359375 C 1083.808594 994.910156 1089.929688 988.070312 1089.488281 980.089844 C 1089.039062 972.109375 1082.199219 965.988281 1074.21875 966.429688 C 1001.921875 970.460938 929.480469 974.300781 857.269531 979.738281 C 834.488281 981.460938 811.773438 983.511719 789.066406 986.011719 C 781.527344 986.839844 771.804688 990.789062 764.269531 989.96875 C 756.320312 989.109375 749.171875 994.859375 748.308594 1002.808594 C 747.445312 1010.75 753.195312 1017.910156 761.144531 1018.769531 "/>
<path fill-rule="evenodd" fill="rgb(100%, 100%, 100%)" fill-opacity="1" d="M 777.105469 1132.53125 C 789.660156 1129.011719 803.777344 1129.421875 816.667969 1128.449219 C 842.644531 1126.480469 868.632812 1124.660156 894.632812 1123.03125 C 978.304688 1117.75 1062.089844 1115.710938 1145.851562 1112.648438 C 1153.839844 1112.351562 1160.089844 1105.628906 1159.800781 1097.640625 C 1159.511719 1089.648438 1152.78125 1083.398438 1144.789062 1083.699219 C 1060.769531 1086.769531 976.734375 1088.820312 892.8125 1094.109375 C 866.691406 1095.761719 840.585938 1097.589844 814.484375 1099.558594 C 799.746094 1100.671875 783.648438 1100.609375 769.292969 1104.628906 C 761.59375 1106.789062 757.09375 1114.789062 759.25 1122.488281 C 761.40625 1130.179688 769.40625 1134.679688 777.105469 1132.53125 "/>
<path fill-rule="evenodd" fill="rgb(100%, 100%, 100%)" fill-opacity="1" d="M 1243.421875 1650.769531 C 1255.980469 1647.25 1270.089844 1647.660156 1282.980469 1646.679688 C 1308.960938 1644.71875 1334.949219 1642.898438 1360.949219 1641.261719 C 1444.621094 1635.988281 1528.398438 1633.949219 1612.171875 1630.878906 C 1620.160156 1630.589844 1626.410156 1623.871094 1626.109375 1615.878906 C 1625.820312 1607.890625 1619.101562 1601.640625 1611.109375 1601.929688 C 1527.089844 1605.011719 1443.050781 1607.058594 1359.128906 1612.351562 C 1333.011719 1614 1306.898438 1615.820312 1280.800781 1617.800781 C 1266.058594 1618.910156 1249.960938 1618.851562 1235.609375 1622.871094 C 1227.910156 1625.019531 1223.410156 1633.019531 1225.570312 1640.71875 C 1227.71875 1648.421875 1235.71875 1652.921875 1243.421875 1650.769531 "/>
<path fill-rule="evenodd" fill="rgb(100%, 100%, 100%)" fill-opacity="1" d="M 1248.148438 1737.941406 C 1260.710938 1734.429688 1274.828125 1734.839844 1287.71875 1733.859375 C 1313.691406 1731.898438 1339.640625 1729.269531 1365.679688 1728.441406 C 1387.949219 1727.730469 1388.378906 1698.121094 1363.859375 1699.53125 C 1337.730469 1701.03125 1311.628906 1703 1285.539062 1704.96875 C 1270.800781 1706.089844 1254.699219 1706.03125 1240.339844 1710.050781 C 1232.640625 1712.199219 1228.140625 1720.199219 1230.300781 1727.898438 C 1232.460938 1735.601562 1240.460938 1740.101562 1248.148438 1737.941406 "/>
<path fill-rule="evenodd" fill="rgb(100%, 100%, 100%)" fill-opacity="1" d="M 1237.378906 1556.429688 C 1334.519531 1554.398438 1431.378906 1550.449219 1528.320312 1542.769531 C 1536.289062 1542.140625 1542.25 1535.160156 1541.621094 1527.191406 C 1540.980469 1519.21875 1534 1513.261719 1526.03125 1513.890625 C 1429.648438 1521.519531 1333.351562 1525.449219 1236.769531 1527.46875 C 1228.78125 1527.640625 1222.429688 1534.261719 1222.601562 1542.261719 C 1222.761719 1550.25 1229.390625 1556.601562 1237.378906 1556.429688 "/>
<path fill-rule="evenodd" fill="rgb(100%, 100%, 100%)" fill-opacity="1" d="M 1617.71875 1862.660156 C 1592.460938 1883.089844 1561.519531 1898.859375 1530.410156 1909.601562 C 1533.800781 1901.058594 1537.058594 1892.460938 1540.191406 1883.828125 C 1544.210938 1872.71875 1551.289062 1855.53125 1553.121094 1839.609375 C 1554.710938 1825.800781 1552.378906 1812.878906 1544.390625 1803.28125 C 1536.601562 1793.929688 1525.601562 1791.878906 1513.78125 1794.980469 C 1502.410156 1797.960938 1490.140625 1806.449219 1483.738281 1811.261719 C 1458.46875 1830.210938 1433.699219 1858.019531 1422.410156 1887.910156 C 1415.628906 1905.859375 1415.828125 1926.921875 1432.429688 1940.078125 C 1440.851562 1946.75 1451.449219 1949.890625 1462.769531 1950.511719 C 1469.828125 1950.890625 1477.179688 1950.28125 1484.21875 1949.238281 C 1479.269531 1960.148438 1474.179688 1970.980469 1468.96875 1981.738281 C 1461.039062 1998.128906 1448.851562 2014.90625 1442.839844 2032.039062 C 1440.378906 2039.070312 1444.089844 2046.777344 1451.121094 2049.242188 C 1458.148438 2051.703125 1465.859375 2047.996094 1468.320312 2040.964844 C 1474 2024.753906 1485.769531 2009.003906 1493.269531 1993.5 C 1501.488281 1976.511719 1509.429688 1959.351562 1516.949219 1942.011719 C 1549.078125 1933.160156 1582.179688 1919.140625 1611.21875 1900.480469 C 1609.558594 1914.820312 1608.738281 1929.28125 1608.589844 1943.800781 C 1608.429688 1958.839844 1609.121094 1973.988281 1609.421875 1989.109375 C 1608.441406 1989.328125 1607.46875 1989.558594 1606.488281 1989.800781 C 1569.871094 1998.980469 1543.441406 2043.058594 1571.371094 2076.839844 C 1578.269531 2085.175781 1587.109375 2089.238281 1595.761719 2089.445312 C 1604.671875 2089.660156 1613.828125 2085.925781 1621.039062 2076.914062 C 1630.199219 2065.464844 1633.609375 2049.035156 1635.050781 2034.882812 C 1635.808594 2027.492188 1636.199219 2020.070312 1636.378906 2012.628906 C 1638.910156 2012.445312 1641.429688 2012.296875 1643.949219 2012.15625 C 1651.789062 2011.714844 1659.609375 2011.769531 1667.460938 2011.796875 C 1673.730469 2011.816406 1680.011719 2011.714844 1686.28125 2011.472656 C 1705.898438 2010.710938 1734.601562 2008.089844 1754.300781 1996.75 C 1770.398438 1987.480469 1781.339844 1973.089844 1780.878906 1950.960938 C 1780.71875 1943.628906 1779.101562 1936.738281 1776.449219 1929.941406 C 1773.738281 1923 1765.910156 1919.570312 1758.96875 1922.269531 C 1752.03125 1924.980469 1748.589844 1932.820312 1751.300781 1939.761719 C 1752.789062 1943.570312 1753.800781 1947.421875 1753.890625 1951.53125 C 1754.179688 1965.429688 1744.609375 1972.570312 1733.199219 1976.929688 C 1717.789062 1982.820312 1698.839844 1983.96875 1685.230469 1984.5 C 1679.339844 1984.730469 1673.441406 1984.820312 1667.550781 1984.800781 C 1659.160156 1984.769531 1650.820312 1984.730469 1642.441406 1985.199219 C 1640.390625 1985.320312 1638.328125 1985.441406 1636.269531 1985.589844 C 1635.960938 1971.730469 1635.441406 1957.859375 1635.578125 1944.078125 C 1635.820312 1921.609375 1637.738281 1899.261719 1642.148438 1877.351562 C 1647.339844 1872.808594 1652.269531 1868.089844 1656.898438 1863.191406 C 1672.679688 1846.488281 1688.171875 1826.941406 1694.910156 1804.539062 C 1696.421875 1799.5 1698.429688 1788.96875 1696.390625 1781.78125 C 1694.601562 1775.511719 1690.710938 1770.789062 1684.480469 1768.378906 C 1679.589844 1766.488281 1674.371094 1766.609375 1669.21875 1768.550781 C 1662.699219 1771.011719 1656.109375 1777.320312 1652.679688 1781.339844 C 1638.761719 1797.679688 1630.691406 1818.96875 1624.21875 1839.101562 C 1621.71875 1846.890625 1619.558594 1854.75 1617.71875 1862.660156 Z M 1609.25 2017.179688 C 1592.089844 2023.621094 1578.75 2043.402344 1592.179688 2059.636719 C 1593.449219 2061.183594 1594.808594 2062.421875 1596.410156 2062.460938 C 1597.769531 2062.492188 1598.871094 2061.421875 1599.960938 2060.050781 C 1605.980469 2052.53125 1607.25 2041.4375 1608.199219 2032.140625 C 1608.710938 2027.167969 1609.039062 2022.179688 1609.25 2017.179688 Z M 1523.761719 1820.699219 C 1523.371094 1820.699219 1522.46875 1820.710938 1521.921875 1820.800781 C 1520.441406 1821.058594 1518.929688 1821.570312 1517.421875 1822.179688 C 1510.5 1824.980469 1503.800781 1829.949219 1499.929688 1832.851562 C 1478.550781 1848.890625 1457.21875 1872.140625 1447.660156 1897.449219 C 1444.921875 1904.71875 1442.46875 1913.589844 1449.199219 1918.921875 C 1454.628906 1923.21875 1462.039062 1923.839844 1469.46875 1923.601562 C 1479.289062 1923.28125 1489.300781 1921.011719 1497.308594 1919.148438 L 1497.359375 1919.140625 C 1503.539062 1904.441406 1509.390625 1889.601562 1514.808594 1874.640625 C 1517.769531 1866.46875 1522.769531 1854.621094 1525.269531 1842.769531 C 1526.980469 1834.621094 1528.320312 1826.339844 1523.761719 1820.699219 "/>
<path fill-rule="evenodd" fill="rgb(100%, 100%, 100%)" fill-opacity="1" d="M 1666.890625 1875.609375 C 1666.640625 1880.289062 1665.929688 1884.929688 1665.210938 1889.539062 C 1662.089844 1909.410156 1657.480469 1929.019531 1653.171875 1948.648438 C 1651.570312 1955.921875 1656.179688 1963.128906 1663.460938 1964.71875 C 1670.730469 1966.320312 1677.941406 1961.710938 1679.539062 1954.441406 C 1683.960938 1934.28125 1688.671875 1914.128906 1691.871094 1893.730469 C 1692.761719 1888.078125 1693.589844 1882.390625 1693.871094 1876.660156 C 1693.898438 1876.078125 1693.839844 1874.449219 1693.789062 1873.359375 C 1695.148438 1868.390625 1693.578125 1862.851562 1689.339844 1859.359375 C 1683.589844 1854.628906 1675.070312 1855.46875 1670.339844 1861.21875 C 1668.96875 1862.898438 1667.738281 1865.171875 1667.148438 1868.019531 C 1666.738281 1870.019531 1666.859375 1874.488281 1666.890625 1875.609375 "/>
<path fill-rule="evenodd" fill="rgb(100%, 100%, 100%)" fill-opacity="1" d="M 1703.351562 1884.921875 C 1701.789062 1890.019531 1700.679688 1895.300781 1699.339844 1900.460938 C 1697.460938 1907.671875 1701.800781 1915.050781 1709 1916.921875 C 1716.210938 1918.800781 1723.589844 1914.46875 1725.460938 1907.261719 C 1726.710938 1902.449219 1727.71875 1897.539062 1729.171875 1892.800781 C 1731.339844 1885.671875 1727.320312 1878.121094 1720.199219 1875.949219 C 1713.070312 1873.769531 1705.519531 1877.789062 1703.351562 1884.921875 "/>
<path fill-rule="evenodd" fill="rgb(98.4375%, 67.1875%, 9.008789%)" fill-opacity="1" d="M 1996.601562 1130.300781 C 2039.570312 1140.03125 2172.660156 1233.910156 2196.238281 1271.128906 C 2219.808594 1308.339844 2181.03125 1363.320312 2138.058594 1353.601562 C 2095.089844 1343.871094 1962 1249.988281 1938.429688 1212.769531 C 1914.851562 1175.558594 1953.640625 1120.578125 1996.601562 1130.300781 "/>
<g clip-path="url(#clip-22)">
<g clip-path="url(#clip-23)">
<path fill-rule="evenodd" fill="rgb(83.984375%, 54.881287%, 1.597595%)" fill-opacity="1" d="M 1947.96875 1141.671875 C 1945.628906 1145.78125 1946.570312 1152.21875 1947.171875 1156.691406 C 1949.03125 1170.550781 1954.289062 1184.011719 1961.828125 1195.738281 C 1971.230469 1210.351562 1984.058594 1222.300781 1997.269531 1233.421875 C 2012.929688 1246.601562 2029.429688 1259.011719 2046.96875 1269.589844 C 2059.308594 1277.039062 2072.320312 1283.28125 2084.71875 1290.609375 C 2088.140625 1292.628906 2091.539062 1294.71875 2094.851562 1296.921875 C 2107.839844 1305.558594 2134.519531 1327.289062 2115.550781 1343.621094 C 2094.339844 1361.878906 2057.21875 1353.628906 2033.78125 1345.488281 C 1978.589844 1326.328125 1932.320312 1282.058594 1914.921875 1225.769531 C 1906.980469 1200.070312 1927.429688 1162.101562 1947.96875 1141.671875 "/>
</g>
</g>
<path fill-rule="evenodd" fill="rgb(98.4375%, 67.1875%, 9.008789%)" fill-opacity="1" d="M 1915.378906 1205.308594 C 1958.339844 1215.03125 2091.429688 1308.921875 2115.011719 1346.128906 C 2138.578125 1383.351562 2099.800781 1438.328125 2056.828125 1428.601562 C 2013.859375 1418.878906 1880.78125 1324.988281 1857.199219 1287.78125 C 1833.621094 1250.558594 1872.410156 1195.578125 1915.378906 1205.308594 "/>
<g clip-path="url(#clip-24)">
<g clip-path="url(#clip-25)">
<path fill-rule="evenodd" fill="rgb(83.984375%, 54.881287%, 1.597595%)" fill-opacity="1" d="M 1861.089844 1210.441406 C 1858.75 1214.550781 1859.691406 1220.988281 1860.289062 1225.460938 C 1862.148438 1239.320312 1867.410156 1252.78125 1874.949219 1264.511719 C 1884.351562 1279.121094 1897.179688 1291.070312 1910.390625 1302.179688 C 1926.050781 1315.359375 1942.550781 1327.78125 1960.089844 1338.359375 C 1972.421875 1345.808594 1985.441406 1352.050781 1997.839844 1359.378906 C 2001.261719 1361.398438 2004.660156 1363.480469 2007.96875 1365.691406 C 2020.960938 1374.320312 2047.640625 1396.058594 2028.671875 1412.378906 C 2007.460938 1430.648438 1970.339844 1422.398438 1946.898438 1414.261719 C 1891.710938 1395.089844 1845.441406 1350.828125 1828.039062 1294.539062 C 1820.089844 1268.839844 1840.550781 1230.871094 1861.089844 1210.441406 "/>
</g>
</g>
<path fill-rule="evenodd" fill="rgb(98.4375%, 67.1875%, 9.008789%)" fill-opacity="1" d="M 1899.300781 1313.570312 C 1931.480469 1250.558594 1991.769531 1189.738281 2040.019531 1188.03125 C 2116.570312 1185.308594 2315.890625 1325.921875 2339.011719 1398.941406 C 2362.140625 1471.960938 2255.289062 1623.421875 2178.75 1626.140625 C 2120.761719 1628.191406 1992.300781 1547.980469 1923.378906 1477.238281 C 1876.621094 1445.609375 1829.210938 1407.089844 1816.03125 1386.289062 C 1792.449219 1349.070312 1831.230469 1294.089844 1874.199219 1303.808594 C 1880.730469 1305.289062 1889.320312 1308.710938 1899.300781 1313.570312 "/>
<g clip-path="url(#clip-26)">
<g clip-path="url(#clip-27)">
<path fill-rule="evenodd" fill="rgb(83.984375%, 54.881287%, 1.597595%)" fill-opacity="1" d="M 1837.351562 1292.46875 C 1837.128906 1292.078125 1836.03125 1294.78125 1835.960938 1294.96875 C 1835.160156 1297.050781 1834.351562 1299.160156 1833.75 1301.308594 C 1832.050781 1307.328125 1830.910156 1313.550781 1830.078125 1319.738281 C 1827.441406 1339.441406 1832.910156 1357.058594 1843.738281 1373.511719 C 1872.96875 1417.871094 1926.980469 1445.898438 1968.160156 1477.871094 C 2002.511719 1504.53125 2042.429688 1539.328125 2088.289062 1517.410156 C 2101.648438 1511.019531 2114.078125 1502.011719 2124.761719 1491.789062 C 2137.011719 1480.078125 2148.800781 1465.96875 2167.628906 1468.621094 C 2186.371094 1471.25 2197.160156 1491.511719 2201.53125 1507.898438 C 2212.03125 1547.308594 2203.960938 1591.980469 2176 1622.289062 C 2150.800781 1649.609375 2110.460938 1662.28125 2074.710938 1667.558594 C 1951.359375 1685.808594 1838.78125 1608.289062 1777.730469 1505.808594 C 1770.921875 1494.378906 1764.671875 1482.660156 1759.121094 1470.558594 C 1737.671875 1423.808594 1780.949219 1324.898438 1837.351562 1292.46875 "/>
</g>
</g>
<path fill-rule="evenodd" fill="rgb(12.5%, 7.788086%, 44.309998%)" fill-opacity="1" d="M 2261.191406 1344.039062 C 2315.289062 1325.5 2424.839844 1402.769531 2425.511719 1459.960938 C 2426.191406 1517.148438 2319.339844 1668.609375 2265.238281 1687.148438 C 2211.140625 1705.699219 2101.589844 1628.421875 2100.921875 1571.230469 C 2100.238281 1514.050781 2207.089844 1362.589844 2261.191406 1344.039062 "/>
<g clip-path="url(#clip-28)">
<g clip-path="url(#clip-29)">
<path fill-rule="evenodd" fill="rgb(8.59375%, 5.499268%, 30.200195%)" fill-opacity="1" d="M 2364.308594 1353.460938 C 2364.128906 1352.308594 2365.671875 1355.371094 2366.199219 1356.410156 C 2367.058594 1358.140625 2367.800781 1359.929688 2368.570312 1361.699219 C 2371.300781 1368.050781 2373.691406 1374.429688 2375.78125 1381.019531 C 2381.980469 1400.519531 2386.488281 1420.628906 2386.238281 1441.191406 C 2385.511719 1500.171875 2347.730469 1561.660156 2300.53125 1595.769531 C 2286.769531 1605.710938 2270.121094 1614.261719 2252.960938 1615.820312 C 2213.921875 1619.371094 2177.019531 1587.710938 2163.578125 1552.929688 C 2156.921875 1535.699219 2154.039062 1517.339844 2145.199219 1500.960938 C 2141.359375 1493.851562 2135.609375 1485.480469 2126.269531 1488.359375 C 2108.648438 1493.800781 2099.859375 1518.699219 2094.75 1534.039062 C 2077.511719 1585.769531 2090.269531 1648.191406 2134.449219 1682.660156 C 2196.050781 1730.710938 2285.410156 1715.128906 2346.410156 1675.238281 C 2446.988281 1609.460938 2510.011719 1424.710938 2364.308594 1353.460938 "/>
</g>
</g>
<path fill-rule="evenodd" fill="rgb(12.5%, 7.788086%, 44.309998%)" fill-opacity="1" d="M 1646.320312 1543.789062 C 1573.71875 1626.46875 1466.410156 1805.050781 1486.738281 1825.320312 C 1507.070312 1845.589844 1685.730469 1738.269531 1768.300781 1665.410156 C 1937.621094 1516 2400.570312 1071.921875 2502.628906 928.898438 C 2544.621094 870.050781 2439.371094 765.109375 2380.648438 807.28125 C 2237.929688 909.761719 1795.308594 1374.121094 1646.320312 1543.789062 "/>
<g clip-path="url(#clip-30)">
<g clip-path="url(#clip-31)">
<path fill-rule="evenodd" fill="rgb(98.4375%, 67.1875%, 9.008789%)" fill-opacity="1" d="M 1596.96875 1565.628906 C 1595.988281 1565.960938 1566.339844 1603.558594 1566.269531 1604.441406 C 1565.570312 1613.980469 1591.230469 1627.839844 1589.699219 1637.261719 C 1585.320312 1664.128906 1573.398438 1703.488281 1621.941406 1687.640625 C 1635.328125 1683.269531 1638.96875 1698.179688 1638.179688 1717.140625 C 1637.160156 1742.019531 1686.128906 1749.589844 1699.328125 1752.75 C 1719.121094 1757.488281 1779.230469 1743.550781 1770.011719 1777.980469 C 1769.03125 1781.628906 1767.648438 1785.179688 1765.988281 1788.570312 C 1763.058594 1794.539062 1759.378906 1800.210938 1755.390625 1805.53125 C 1750.210938 1812.441406 1744.308594 1818.800781 1737.960938 1824.648438 C 1725.480469 1836.148438 1711.519531 1845.980469 1696.570312 1854.019531 C 1671.890625 1867.300781 1644.800781 1876.390625 1617.121094 1880.71875 C 1595.898438 1884.039062 1574.28125 1883.859375 1553.308594 1878.949219 C 1536.800781 1875.089844 1520.660156 1868.269531 1506.21875 1859.398438 C 1406.03125 1797.789062 1535.53125 1643.109375 1596.96875 1565.628906 "/>
</g>
</g>
<g clip-path="url(#clip-32)">
<g clip-path="url(#clip-33)">
<path fill-rule="evenodd" fill="rgb(83.984375%, 54.881287%, 1.597595%)" fill-opacity="1" d="M 1527.039062 1681.941406 C 1523.308594 1695.371094 1521.878906 1709.359375 1520.980469 1723.089844 C 1520.328125 1733.089844 1519.96875 1743.238281 1522.011719 1753.128906 C 1523.238281 1759.140625 1525.558594 1765.148438 1529.011719 1770.460938 C 1531.558594 1774.378906 1534.960938 1777.789062 1539.238281 1780.328125 C 1569.390625 1798.308594 1594 1770.929688 1615.75 1755.699219 C 1621.21875 1751.871094 1626.871094 1748.199219 1632.769531 1744.878906 C 1640.328125 1740.621094 1648.800781 1736.199219 1657.859375 1735.039062 C 1674.308594 1732.929688 1679.058594 1743.890625 1679.058594 1756.878906 C 1679.078125 1778.269531 1664.539062 1797.789062 1648.519531 1813.160156 C 1621.558594 1839.03125 1582.96875 1855.351562 1542.839844 1856.089844 C 1519.429688 1856.519531 1495.269531 1851.28125 1479.050781 1835.859375 C 1472.871094 1829.988281 1468.019531 1822.960938 1464.328125 1815.679688 C 1445.851562 1779.261719 1507.320312 1715.890625 1527.039062 1681.941406 "/>
</g>
</g>
<g clip-path="url(#clip-34)">
<g clip-path="url(#clip-35)">
<path fill-rule="evenodd" fill="rgb(8.59375%, 5.499268%, 30.200195%)" fill-opacity="1" d="M 2443.480469 772.46875 C 2455.460938 785.570312 2461.089844 804.78125 2466.398438 821.828125 C 2494.621094 912.480469 2447.371094 974.808594 2383.859375 1036 C 2316.191406 1101.191406 2248.070312 1168.160156 2171.851562 1223.441406 C 2106.601562 1270.75 2032.519531 1306.148438 1973.910156 1362.289062 C 1915.429688 1418.320312 1879.960938 1492.789062 1834.609375 1558.78125 C 1785.488281 1630.261719 1726.21875 1671.550781 1657.089844 1720.859375 C 1642.859375 1731.011719 1610.160156 1761.378906 1633.160156 1779.019531 C 1659.28125 1799.039062 1704.738281 1784.621094 1731.039062 1774.011719 C 1808.46875 1742.761719 1881.160156 1690.980469 1947.230469 1640.808594 C 2055.941406 1558.261719 2156.71875 1464.871094 2254.578125 1369.878906 C 2360.421875 1267.140625 2464.109375 1158.621094 2547.851562 1036.671875 C 2606.089844 951.859375 2673.859375 811.308594 2569.738281 733.53125 C 2550.738281 719.339844 2465.671875 780.550781 2443.480469 772.46875 "/>
</g>
</g>
<path fill-rule="evenodd" fill="rgb(98.4375%, 67.1875%, 9.008789%)" fill-opacity="1" d="M 2183.839844 1087.03125 C 2168.921875 1108.660156 2197.179688 1136.828125 2218.769531 1121.851562 C 2256.460938 1095.691406 2383.921875 967.851562 2409.96875 930.078125 C 2424.878906 908.460938 2396.621094 880.28125 2375.039062 895.261719 C 2337.351562 921.421875 2209.890625 1049.261719 2183.839844 1087.03125 "/>
<g clip-path="url(#clip-36)">
<g clip-path="url(#clip-37)">
<path fill-rule="evenodd" fill="rgb(99.609375%, 93.359375%, 81.639099%)" fill-opacity="1" d="M 2171.140625 1097.738281 C 2155.441406 1118.601562 2177.140625 1140.21875 2197.949219 1124.46875 C 2234.28125 1096.960938 2361.75 969.121094 2389.140625 932.699219 C 2404.839844 911.851562 2383.140625 890.21875 2362.339844 905.96875 C 2326 933.480469 2198.53125 1061.320312 2171.140625 1097.738281 "/>
</g>
</g>
<path fill-rule="evenodd" fill="rgb(98.4375%, 67.1875%, 9.008789%)" fill-opacity="1" d="M 2183.789062 1151.851562 C 2243.679688 1180.191406 2264.640625 1284.160156 2263.21875 1316.960938 C 2261.789062 1349.75 2203.941406 1363.46875 2175.210938 1348.640625 C 2146.46875 1333.808594 2168.21875 1262.390625 2090.800781 1227.960938 C 2050.230469 1209.921875 2085.929688 1105.539062 2183.789062 1151.851562 "/>
<g clip-path="url(#clip-38)">
<g clip-path="url(#clip-39)">
<path fill-rule="evenodd" fill="rgb(83.984375%, 54.881287%, 1.597595%)" fill-opacity="1" d="M 2118.589844 1128.730469 C 2115.570312 1132.980469 2111.410156 1136.488281 2108.550781 1141.121094 C 2095.949219 1161.46875 2091.78125 1183.511719 2104.570312 1204.871094 C 2114.238281 1221.011719 2130.601562 1227.589844 2142.75 1240.859375 C 2155.601562 1254.890625 2158.800781 1275.710938 2157.820312 1294.039062 C 2157.390625 1302.019531 2156.628906 1312.800781 2151.53125 1319.378906 C 2146.480469 1325.890625 2137.019531 1324.761719 2129.960938 1323.019531 C 2112.199219 1318.648438 2097.171875 1306.679688 2085.230469 1293.269531 C 2052.011719 1255.96875 2051.621094 1142.621094 2118.589844 1128.730469 "/>
</g>
</g>
<path fill-rule="evenodd" fill="rgb(75.78125%, 72.851562%, 95.3125%)" fill-opacity="1" d="M 1484.21875 918.789062 C 1521.011719 918.789062 1550.871094 948.660156 1550.871094 985.449219 C 1550.871094 1022.230469 1521.011719 1052.101562 1484.21875 1052.101562 C 1447.429688 1052.101562 1417.570312 1022.230469 1417.570312 985.449219 C 1417.570312 948.660156 1447.429688 918.789062 1484.21875 918.789062 "/>
<path fill-rule="evenodd" fill="rgb(75.78125%, 72.851562%, 95.3125%)" fill-opacity="1" d="M 1742.648438 848.230469 C 1764.351562 848.230469 1781.980469 865.851562 1781.980469 887.558594 C 1781.980469 909.261719 1764.351562 926.878906 1742.648438 926.878906 C 1720.941406 926.878906 1703.320312 909.261719 1703.320312 887.558594 C 1703.320312 865.851562 1720.941406 848.230469 1742.648438 848.230469 "/>
<path fill-rule="evenodd" fill="rgb(75.78125%, 72.851562%, 95.3125%)" fill-opacity="1" d="M 1518.441406 733.238281 C 1531.238281 733.238281 1541.628906 743.628906 1541.628906 756.441406 C 1541.628906 769.238281 1531.238281 779.628906 1518.441406 779.628906 C 1505.640625 779.628906 1495.238281 769.238281 1495.238281 756.441406 C 1495.238281 743.628906 1505.640625 733.238281 1518.441406 733.238281 "/>
</svg>
